<svg  viewBox="0 0 200 200" fill="none" xmlns="http://www.w3.org/2000/svg">
<g id="Frame">
<path id="Vector" d="M142.18 83.1699C144.217 82.8404 145.79 81.1314 145.79 79.068V6.08301C145.79 3.87387 144 2.08301 141.79 2.08301H6.08203C3.87289 2.08301 2.08203 3.87387 2.08203 6.08301V193.916C2.08203 196.126 3.87289 197.916 6.08203 197.916H143.042C144.56 197.916 145.79 196.686 145.79 195.168C145.79 193.75 144.71 192.572 143.306 192.375C119.233 188.994 100.124 170.063 96.4362 146.103C96.1204 144.051 94.4053 142.458 92.3297 142.458H26.832C24.6229 142.458 22.832 140.667 22.832 138.458V138.125C22.832 135.916 24.6229 134.125 26.832 134.125H92.2086C94.317 134.125 96.0479 132.485 96.3225 130.395C96.9286 125.782 98.0919 121.339 99.7675 117.155C100.904 114.318 98.9374 111 95.8811 111H26.832C24.6229 111 22.832 109.209 22.832 107V106.666C22.832 104.457 24.6229 102.666 26.832 102.666H106.48C107.679 102.666 108.808 102.123 109.599 101.223C117.87 91.809 129.307 85.2518 142.18 83.1699ZM85.9987 165.583C88.2078 165.583 89.9987 167.374 89.9987 169.583V169.916C89.9987 172.126 88.2078 173.916 85.9987 173.916H26.832C24.6229 173.916 22.832 172.126 22.832 169.916V169.583C22.832 167.374 24.6229 165.583 26.832 165.583H85.9987ZM22.832 43.708C22.832 41.4989 24.6229 39.708 26.832 39.708H121.04C123.25 39.708 125.04 41.4989 125.04 43.708V44.0413C125.04 46.2505 123.25 48.0413 121.04 48.0413H26.832C24.6229 48.0413 22.832 46.2505 22.832 44.0413V43.708ZM22.832 75.1664C22.832 72.9572 24.6229 71.1663 26.832 71.1663H121.04C123.25 71.1663 125.04 72.9572 125.04 75.1663V75.4997C125.04 77.7088 123.25 79.4997 121.04 79.4997H26.832C24.6229 79.4997 22.832 77.7088 22.832 75.4997V75.1664Z" fill="white" fill-opacity="0.1"/>
<path id="Vector_2" d="M151.043 90.792C125.168 90.792 104.168 111.834 104.168 137.667C104.168 163.542 125.21 184.542 151.043 184.542C176.876 184.542 197.918 163.542 197.918 137.667C197.918 111.834 176.876 90.792 151.043 90.792ZM141.668 164.417L115.71 138.459L121.585 132.584L141.668 152.667L180.418 113.917L186.293 119.792L141.668 164.417Z" fill="#39B98D"/>
</g>
</svg>
