<svg width="32" height="32" viewBox="0 0 32 32" fill="none" xmlns="http://www.w3.org/2000/svg">
<g id="celebration">
<mask id="mask0_4059_3225" style="mask-type:alpha" maskUnits="userSpaceOnUse" x="0" y="0" width="32" height="32">
<rect id="Bounding box" width="32" height="32" fill="#D9D9D9"/>
</mask>
<g mask="url(#mask0_4059_3225)">
<path id="celebration_2" d="M3.59999 26.6661L8.63333 12.6661C8.74444 12.3772 8.91666 12.155 9.14999 11.9994C9.38333 11.8439 9.63333 11.7661 9.89999 11.7661C10.0778 11.7661 10.2444 11.7994 10.4 11.8661C10.5555 11.9327 10.7 12.0327 10.8333 12.1661L19.8333 21.1661C19.9667 21.2994 20.0667 21.4439 20.1333 21.5994C20.2 21.755 20.2333 21.9216 20.2333 22.0994C20.2333 22.3661 20.1555 22.6161 20 22.8494C19.8444 23.0828 19.6222 23.255 19.3333 23.3661L5.33333 28.3994C5.06666 28.5105 4.8111 28.5272 4.56666 28.4494C4.32221 28.3716 4.1111 28.2439 3.93333 28.0661C3.75555 27.8883 3.62777 27.6772 3.54999 27.4328C3.47221 27.1883 3.48888 26.9327 3.59999 26.6661ZM30.7 9.36608C30.5 9.56608 30.2667 9.66608 30 9.66608C29.7333 9.66608 29.5 9.56608 29.3 9.36608L29.2 9.26608C28.8889 8.95497 28.5 8.79941 28.0333 8.79941C27.5667 8.79941 27.1778 8.95497 26.8667 9.26608L20.1 16.0327C19.9 16.2327 19.6667 16.3327 19.4 16.3327C19.1333 16.3327 18.9 16.2327 18.7 16.0327C18.5 15.8327 18.4 15.5994 18.4 15.3327C18.4 15.0661 18.5 14.8327 18.7 14.6327L25.4667 7.86608C26.1778 7.15497 27.0333 6.79941 28.0333 6.79941C29.0333 6.79941 29.8889 7.15497 30.6 7.86608L30.7 7.96608C30.9 8.16608 31 8.39941 31 8.66608C31 8.93275 30.9 9.16608 30.7 9.36608ZM13.3 5.36608C13.5 5.16608 13.7333 5.06608 14 5.06608C14.2667 5.06608 14.5 5.16608 14.7 5.36608L14.8667 5.53275C15.5778 6.24386 15.9333 7.0883 15.9333 8.06608C15.9333 9.04386 15.5778 9.8883 14.8667 10.5994L14.7667 10.6994C14.5667 10.8994 14.3333 10.9994 14.0667 10.9994C13.8 10.9994 13.5667 10.8994 13.3667 10.6994C13.1667 10.4994 13.0667 10.2661 13.0667 9.99941C13.0667 9.73275 13.1667 9.49942 13.3667 9.29942L13.4667 9.19941C13.7778 8.8883 13.9333 8.51053 13.9333 8.06608C13.9333 7.62164 13.7778 7.24386 13.4667 6.93275L13.3 6.76608C13.1 6.56608 13 6.33275 13 6.06608C13 5.79941 13.1 5.56608 13.3 5.36608ZM18.7 2.69941C18.9 2.49941 19.1333 2.39941 19.4 2.39941C19.6667 2.39941 19.9 2.49941 20.1 2.69941L21.5333 4.13275C22.2444 4.84386 22.6 5.69941 22.6 6.69941C22.6 7.69941 22.2444 8.55497 21.5333 9.26608L17.4333 13.3661C17.2333 13.5661 17 13.6661 16.7333 13.6661C16.4667 13.6661 16.2333 13.5661 16.0333 13.3661C15.8333 13.1661 15.7333 12.9327 15.7333 12.6661C15.7333 12.3994 15.8333 12.1661 16.0333 11.9661L20.1333 7.86608C20.4444 7.55497 20.6 7.16608 20.6 6.69941C20.6 6.23275 20.4444 5.84386 20.1333 5.53275L18.7 4.09941C18.5 3.89941 18.4 3.66608 18.4 3.39941C18.4 3.13275 18.5 2.89941 18.7 2.69941ZM29.3667 18.6994C29.1667 18.8994 28.9333 18.9994 28.6667 18.9994C28.4 18.9994 28.1667 18.8994 27.9667 18.6994L26.5333 17.2661C26.2222 16.955 25.8333 16.7994 25.3667 16.7994C24.9 16.7994 24.5111 16.955 24.2 17.2661L22.7667 18.6994C22.5667 18.8994 22.3333 18.9994 22.0667 18.9994C21.8 18.9994 21.5667 18.8994 21.3667 18.6994C21.1667 18.4994 21.0667 18.2661 21.0667 17.9994C21.0667 17.7327 21.1667 17.4994 21.3667 17.2994L22.8 15.8661C23.5111 15.155 24.3667 14.7994 25.3667 14.7994C26.3667 14.7994 27.2222 15.155 27.9333 15.8661L29.3667 17.2994C29.5667 17.4994 29.6667 17.7327 29.6667 17.9994C29.6667 18.2661 29.5667 18.4994 29.3667 18.6994Z" fill="#39B98D"/>
</g>
</g>
</svg>
