<svg width="32" height="32" viewBox="0 0 32 32" fill="none" xmlns="http://www.w3.org/2000/svg">
<g id="Frame">
<path id="Vector" d="M22 13H10V20H22V13Z" fill="#39B98D"/>
<path id="Vector_2" d="M9 12.0003H23V10.0003H19.5355C19.7302 9.99813 19.9225 9.95756 20.1015 9.88095C20.2805 9.80435 20.4427 9.69321 20.5787 9.5539C20.7147 9.41459 20.8219 9.24984 20.8942 9.06906C20.9665 8.88828 21.0024 8.69503 21 8.50035C21.0068 8.2078 20.9256 7.91996 20.7669 7.67413C20.6081 7.4283 20.3792 7.23582 20.1098 7.12164C19.8404 7.00745 19.5429 6.97684 19.2558 7.03375C18.9688 7.09067 18.7055 7.2325 18.5 7.44085L16 10.0003L13.5 7.44235C13.2946 7.2341 13.0314 7.09232 12.7446 7.03536C12.4577 6.9784 12.1603 7.00889 11.8909 7.12288C11.6216 7.23688 11.3926 7.42912 11.2338 7.67471C11.0749 7.9203 10.9935 8.20793 11 8.50035C10.9976 8.69503 11.0335 8.88828 11.1058 9.06906C11.1781 9.24984 11.2853 9.41459 11.4213 9.5539C11.5573 9.69321 11.7195 9.80435 11.8985 9.88095C12.0775 9.95756 12.2698 9.99813 12.4645 10.0003H9V12.0003Z" fill="#39B98D"/>
<path id="Vector_3" d="M16.618 2.3165L16 1L15.382 2.3165L14 2.528L15 3.553L14.764 5L16 4.3165L17.236 5L17 3.553L18 2.528L16.618 2.3165Z" fill="#39B98D"/>
<path id="Vector_4" d="M5.618 6.3165L5 5L4.382 6.3165L3 6.528L4 7.553L3.764 9L5 8.3165L6.236 9L6 7.553L7 6.528L5.618 6.3165Z" fill="#39B98D"/>
<path id="Vector_5" d="M26 7.553L25.764 9L27 8.3165L28.236 9L28 7.553L29 6.528L27.618 6.3165L27 5L26.382 6.3165L25 6.528L26 7.553Z" fill="#39B98D"/>
<path id="Vector_6" d="M1.88888 15.0004C1.75658 14.9964 1.62512 15.0226 1.50449 15.0771C1.38386 15.1316 1.27724 15.2128 1.19273 15.3147C1.10822 15.4165 1.04806 15.5363 1.0168 15.665C0.985551 15.7936 0.984037 15.9276 1.01238 16.0569L1.36588 18.2854C1.83082 21.1684 3.25371 23.8105 5.40488 25.7854V27.0004H9.99938L9.94038 24.5504C9.90493 23.7878 9.70891 23.0413 9.36512 22.3597C9.02134 21.6781 8.53755 21.0767 7.94538 20.5949L7.17288 19.0629C7.1093 18.9314 7.01219 18.8189 6.89132 18.7368C6.77045 18.6547 6.63009 18.606 6.48438 18.5954C6.37254 18.5926 6.26164 18.6164 6.16074 18.6647C6.05985 18.713 5.97181 18.7845 5.90383 18.8734C5.83586 18.9622 5.78987 19.0659 5.76963 19.1759C5.74939 19.2859 5.75547 19.3992 5.78738 19.5064L6.12738 20.9939L7.12488 22.9714C6.08167 22.3023 5.18434 21.4294 4.48668 20.4051C3.78903 19.3808 3.30543 18.2262 3.06488 17.0104L2.83788 15.8604C2.79631 15.6326 2.6808 15.4249 2.50924 15.2694C2.33767 15.114 2.11963 15.0194 1.88888 15.0004Z" fill="#39B98D"/>
<path id="Vector_7" d="M10.5 28H4.5V31H10.5V28Z" fill="#39B98D"/>
<path id="Vector_8" d="M30.987 16.0579C31.0155 15.9285 31.0141 15.7944 30.983 15.6657C30.9518 15.5369 30.8917 15.417 30.8071 15.315C30.7226 15.213 30.6159 15.1317 30.4952 15.0771C30.3745 15.0226 30.2429 14.9964 30.1105 15.0004C29.8797 15.0191 29.6615 15.1135 29.4898 15.2688C29.3181 15.4241 29.2023 15.6317 29.1605 15.8594L28.9335 17.0094C28.6928 18.2249 28.2091 19.3793 27.5114 20.4033C26.8138 21.4274 25.9165 22.3 24.8735 22.9689L25.871 20.9914L26.211 19.5039C26.2429 19.3967 26.249 19.2834 26.2287 19.1734C26.2085 19.0634 26.1625 18.9597 26.0945 18.8709C26.0266 18.782 25.9385 18.7105 25.8376 18.6622C25.7367 18.6139 25.6258 18.5901 25.514 18.5929C25.3683 18.6035 25.2279 18.6522 25.1071 18.7343C24.9862 18.8164 24.8891 18.9289 24.8255 19.0604L24.053 20.5924C23.4608 21.0742 22.977 21.6756 22.6333 22.3572C22.2895 23.0388 22.0934 23.7853 22.058 24.5479L22 27.0004H26.5945V25.7884C28.7457 23.8135 30.1686 21.1714 30.6335 18.2884L30.987 16.0579Z" fill="#39B98D"/>
<path id="Vector_9" d="M27.5 28H21.5V31H27.5V28Z" fill="#39B98D"/>
</g>
</svg>
