<svg width="32" height="32" viewBox="0 0 32 32" fill="none" xmlns="http://www.w3.org/2000/svg">
<g id="Frame">
<path id="Vector" d="M15.2926 5.12148C15.4801 4.93422 15.7343 4.82903 15.9993 4.82903C16.2643 4.82903 16.5184 4.93422 16.7059 5.12148L28.2926 16.7082C28.3849 16.8036 28.4953 16.8797 28.6173 16.9321C28.7393 16.9844 28.8706 17.012 29.0033 17.0131C29.1361 17.0142 29.2678 16.9888 29.3907 16.9384C29.5135 16.8881 29.6252 16.8138 29.719 16.7199C29.8129 16.6259 29.8871 16.5142 29.9373 16.3913C29.9875 16.2684 30.0127 16.1367 30.0115 16.0039C30.0103 15.8712 29.9827 15.74 29.9302 15.618C29.8777 15.496 29.8015 15.3857 29.7059 15.2935L18.1206 3.70682C17.842 3.42824 17.5113 3.20726 17.1473 3.05649C16.7834 2.90572 16.3932 2.82812 15.9993 2.82812C15.6053 2.82813 15.2152 2.90572 14.8512 3.05649C14.4872 3.20726 14.1565 3.42824 13.8779 3.70682L2.29127 15.2935C2.19581 15.3858 2.11968 15.4962 2.06733 15.6182C2.01498 15.7402 1.98745 15.8714 1.98636 16.0042C1.98527 16.137 2.01064 16.2687 2.06097 16.3915C2.11131 16.5144 2.18562 16.626 2.27955 16.7199C2.37349 16.8137 2.48518 16.8879 2.6081 16.9382C2.73102 16.9884 2.86271 17.0136 2.99549 17.0124C3.12826 17.0112 3.25947 16.9835 3.38145 16.9311C3.50343 16.8786 3.61374 16.8024 3.70594 16.7068L15.2926 5.12148Z" fill="#39B98D"/>
<path id="Vector_2" d="M16 7.24219L26.8787 18.1209C26.9187 18.1609 26.9587 18.1982 27 18.2355V26.4995C27 27.8795 25.88 28.9995 24.5 28.9995H20C19.7348 28.9995 19.4804 28.8942 19.2929 28.7066C19.1054 28.5191 19 28.2647 19 27.9995V21.9995C19 21.7343 18.8946 21.4799 18.7071 21.2924C18.5196 21.1049 18.2652 20.9995 18 20.9995H14C13.7348 20.9995 13.4804 21.1049 13.2929 21.2924C13.1054 21.4799 13 21.7343 13 21.9995V27.9995C13 28.2647 12.8946 28.5191 12.7071 28.7066C12.5196 28.8942 12.2652 28.9995 12 28.9995H7.5C6.83696 28.9995 6.20107 28.7361 5.73223 28.2673C5.26339 27.7984 5 27.1626 5 26.4995V18.2355C5.04148 18.1984 5.08194 18.1602 5.12133 18.1209L16 7.24219Z" fill="#39B98D"/>
</g>
</svg>
