<svg width="32" height="32" viewBox="0 0 32 32" fill="none" xmlns="http://www.w3.org/2000/svg">
<g id="Frame">
<path id="Vector" d="M11.8716 5.18423C11.7116 5.72823 11.4556 5.95223 11.0716 5.92023C10.8796 6.88023 10.2076 7.90423 8.79955 8.32023C8.70355 8.35223 8.57555 8.35223 8.47955 8.35223H8.38355C7.23155 8.16023 6.11155 7.23223 5.88755 5.92023C5.43955 5.98423 5.18355 5.69623 5.05555 4.99223C4.86355 4.16023 5.08755 3.87223 5.63155 3.96823C4.95955 0.0322345 10.7516 0.640235 10.4636 1.72823C10.1756 2.81623 11.7116 1.47223 11.3916 4.00023C12.0316 3.93623 11.9996 4.44823 11.8716 5.18423ZM14.3676 11.7122L13.5356 18.8162C13.4716 19.2322 13.2796 19.6482 12.9596 19.9362L12.4476 20.3842L11.6476 29.4722C11.5516 30.4002 10.7836 31.1042 9.85555 31.1042H7.13555C6.20755 31.1042 5.43955 30.4002 5.34355 29.4722L4.47955 20.3842L3.96755 19.9362C3.64755 19.6482 3.42355 19.2642 3.39155 18.8162L2.55955 11.7122C2.46355 10.9762 2.84755 10.2722 3.48755 9.95223C3.48755 9.95223 3.51955 9.92023 3.55155 9.92023H3.61555C3.67955 9.88823 3.74355 9.88823 3.80755 9.85623C4.31955 9.69623 5.37555 9.40823 6.20755 9.21623C6.27155 9.21623 6.30355 9.21623 6.33555 9.28023L8.51155 15.2642L10.6876 9.28023C10.7196 9.21623 10.7516 9.21623 10.8156 9.21623C11.6476 9.44023 12.6716 9.69623 13.2156 9.85623C13.2796 9.88823 13.3436 9.88823 13.4076 9.92023H13.4716H13.4396C14.0796 10.2722 14.4636 10.9442 14.3676 11.7122Z" fill="#39B98D"/>
<path id="Vector_2" d="M8.80092 10.3676C8.76892 10.3356 8.76892 10.2716 8.83292 10.2396C9.72892 9.47158 9.34492 8.83158 8.41692 8.76758H8.38492C7.45692 8.83158 7.07292 9.47158 7.96892 10.2396C8.00092 10.2716 8.00092 10.3356 8.00092 10.3676L7.55292 11.1676C7.52092 11.2316 7.52092 11.2636 7.55292 11.3276L7.68092 11.6476C7.68092 11.6476 7.68092 11.6796 7.71292 11.6796C7.90492 12.1916 8.06492 12.6716 8.19292 13.0236V13.0556L8.41692 13.6316C8.41692 13.6636 8.44892 13.6636 8.44892 13.6316L8.67292 13.0556V13.0236C8.80092 12.6716 8.96092 12.1916 9.15292 11.6796C9.15292 11.6796 9.15292 11.6476 9.18492 11.6476L9.28092 11.3916C9.31292 11.3276 9.28092 11.2636 9.28092 11.2316L8.80092 10.3676ZM19.3609 16.7356H17.2169C16.8649 16.7356 16.5769 17.0236 16.5769 17.3756V30.4636C16.5769 30.8156 16.8649 31.1036 17.2169 31.1036H19.3609C19.7129 31.1036 20.0009 30.8156 20.0009 30.4636V17.3756C20.0009 17.0236 19.7129 16.7356 19.3609 16.7356ZM29.2809 14.0156L25.8569 9.75958C25.5369 9.37558 24.9609 9.37558 24.6409 9.75958L21.2169 14.0156C20.8009 14.5276 21.1849 15.2956 21.8249 15.2956H23.5529V30.4636C23.5529 30.8156 23.8409 31.1036 24.1929 31.1036H26.3369C26.6889 31.1036 26.9769 30.8156 26.9769 30.4636V15.2956H28.7049C29.3449 15.2956 29.6969 14.5276 29.2809 14.0156Z" fill="#39B98D"/>
</g>
</svg>
