<svg width="32" height="32" viewBox="0 0 32 32" fill="none" xmlns="http://www.w3.org/2000/svg">
<g id="Frame">
<path id="Vector" fill-rule="evenodd" clip-rule="evenodd" d="M29.006 25H29H3C2.448 25 2 25.448 2 26C2 26.552 2.448 27 3 27H29C29.552 27 30 26.552 30 26C30 25.45 29.555 25.003 29.006 25ZM4.166 23H27.834C26.934 17.649 22.488 13.494 17 13.041V12H18C18.552 12 19 11.552 19 11C19 10.448 18.552 10 18 10H14C13.448 10 13 10.448 13 11C13 11.552 13.448 12 14 12H15V13.041C9.512 13.494 5.066 17.649 4.166 23ZM26.459 14.616L28.191 13.616C28.669 13.34 28.833 12.728 28.557 12.25C28.281 11.772 27.669 11.608 27.191 11.884L25.459 12.884C24.981 13.16 24.817 13.772 25.093 14.25C25.369 14.728 25.981 14.892 26.459 14.616ZM6.541 12.884L4.809 11.884C4.331 11.608 3.719 11.772 3.443 12.25C3.167 12.728 3.331 13.34 3.809 13.616L5.541 14.616C6.019 14.892 6.631 14.728 6.907 14.25C7.183 13.772 7.019 13.16 6.541 12.884ZM11.116 9.041L10.116 7.309C9.84 6.831 9.228 6.667 8.75 6.943C8.272 7.219 8.108 7.831 8.384 8.309L9.384 10.041C9.66 10.519 10.272 10.683 10.75 10.407C11.228 10.131 11.392 9.519 11.116 9.041ZM22.616 10.041L23.616 8.309C23.892 7.831 23.728 7.219 23.25 6.943C22.772 6.667 22.16 6.831 21.884 7.309L20.884 9.041C20.608 9.519 20.772 10.131 21.25 10.407C21.728 10.683 22.34 10.519 22.616 10.041ZM17 8V6C17 5.448 16.552 5 16 5C15.448 5 15 5.448 15 6V8C15 8.552 15.448 9 16 9C16.552 9 17 8.552 17 8Z" fill="#39B98D"/>
</g>
</svg>
