<svg viewBox="0 0 200 200" fill="none" xmlns="http://www.w3.org/2000/svg">
<g clip-path="url(#clip0_4438_2770)">
<mask id="mask0_4438_2770" style="mask-type:luminance" maskUnits="userSpaceOnUse" x="-50" y="-50" width="301" height="300">
<path d="M250.5 -50H-49.5V250H250.5V-50Z" fill="white"/>
</mask>
<g mask="url(#mask0_4438_2770)">
<path d="M154.879 144.004H18.1208C11.3378 144.004 5.83984 138.506 5.83984 131.723V40.2771C5.83984 33.4941 11.3378 27.9961 18.1208 27.9961H154.879C161.662 27.9961 167.16 33.4941 167.16 40.2771V131.723C167.16 138.506 161.662 144.004 154.879 144.004Z" fill="white" fill-opacity="0.1"/>
<path d="M86.5779 103.277L5.83984 40.2771C5.83984 33.4941 11.3378 27.9951 18.1208 27.9951H154.879C161.662 27.9951 167.16 33.4941 167.16 40.2771L86.5779 103.277Z" fill="white" fill-opacity="0.1"/>
<path d="M188.985 135.615C188.985 158.699 170.272 177.411 147.189 177.411C124.105 177.411 105.393 158.699 105.393 135.615C105.393 112.532 124.105 93.8193 147.189 93.8193C170.272 93.8193 188.985 112.532 188.985 135.615Z" fill="#39B98D" stroke="#101722" stroke-width="3"/>
<path d="M125.168 137.454C131.613 144.041 139.458 152.06 139.458 152.06C139.458 152.06 159.939 131.302 170.37 120.728" stroke="white" stroke-width="6" stroke-miterlimit="10" stroke-linecap="round"/>
</g>
</g>
<defs>
<clipPath id="clip0_4438_2770">
<rect width="200" height="200" fill="white"/>
</clipPath>
</defs>
</svg>