<svg width="32" height="32" viewBox="0 0 32 32" fill="none" xmlns="http://www.w3.org/2000/svg">
<g id="Layer_1">
<path id="Vector" d="M28.1503 8.2998H3.85028C1.90028 8.2998 0.350275 9.9498 0.500275 11.8998L0.650275 13.8498L0.800275 16.0498L1.55028 25.7498C1.70028 27.4998 3.15028 28.8498 4.90028 28.8498H27.1003C28.8503 28.8498 30.3003 27.4998 30.4503 25.7498L31.2003 16.0498L31.3503 13.8498L31.5003 11.8998C31.6503 9.9498 30.1003 8.2998 28.1503 8.2998ZM22.2503 20.3998H17.8503V24.7998H14.1003V20.4498H9.70028V16.6998H14.0503V12.2998H17.8503V16.6998H22.2503V20.3998Z" fill="#39B98D"/>
<path id="Vector_2" d="M22.1004 7.25039H20.2504V6.65039C20.2504 5.75039 19.5004 5.00039 18.6004 5.00039H13.4004C12.5004 5.00039 11.7504 5.75039 11.7504 6.65039V7.25039H9.90039V6.65039C9.90039 4.70039 11.5004 3.15039 13.4004 3.15039H18.5504C20.5004 3.15039 22.0504 4.75039 22.0504 6.65039V7.25039H22.1004Z" fill="#39B98D"/>
</g>
</svg>
