<svg  viewBox="0 0 36 22" fill="none" xmlns="http://www.w3.org/2000/svg">
<g id="Group 54">
<path id="Vector" d="M10.2422 8.09114C10.2422 8.52868 10.2895 8.88344 10.3722 9.1436C10.4668 9.40376 10.5851 9.68757 10.7506 9.99503C10.8098 10.0896 10.8334 10.1842 10.8334 10.267C10.8334 10.3853 10.7625 10.5035 10.6087 10.6218L9.86374 11.1184C9.75731 11.1894 9.65089 11.2249 9.55628 11.2249C9.43803 11.2249 9.31977 11.1657 9.20152 11.0593C9.03596 10.8819 8.89406 10.6927 8.77581 10.5035C8.65755 10.3025 8.5393 10.0778 8.40922 9.80582C7.48684 10.8938 6.32795 11.4377 4.93255 11.4377C3.93921 11.4377 3.14691 11.1539 2.56746 10.5863C1.98802 10.0187 1.69238 9.26186 1.69238 8.31582C1.69238 7.31066 2.04715 6.49471 2.7685 5.87979C3.48985 5.26486 4.4477 4.9574 5.66572 4.9574C6.06779 4.9574 6.48168 4.99288 6.91922 5.05201C7.35676 5.11113 7.80612 5.20574 8.27914 5.31217V4.44891C8.27914 3.55018 8.08993 2.92343 7.72334 2.55684C7.34493 2.19025 6.70636 2.01287 5.7958 2.01287C5.38191 2.01287 4.9562 2.06018 4.51866 2.1666C4.08112 2.27303 3.6554 2.40311 3.24151 2.56867C3.05231 2.65145 2.9104 2.69875 2.82762 2.7224C2.74484 2.74605 2.68572 2.75787 2.63842 2.75787C2.47286 2.75787 2.39008 2.63962 2.39008 2.39129V1.81184C2.39008 1.62263 2.41373 1.48073 2.47286 1.39795C2.53199 1.31517 2.63842 1.2324 2.80397 1.14962C3.21786 0.936761 3.71453 0.759379 4.29397 0.617474C4.87342 0.463744 5.48834 0.392791 6.13874 0.392791C7.54596 0.392791 8.57477 0.712078 9.237 1.35065C9.88739 1.98922 10.2185 2.95891 10.2185 4.2597V8.09114H10.2422ZM5.44104 9.8886C5.83128 9.8886 6.23334 9.81765 6.65906 9.67575C7.08477 9.53384 7.46318 9.27368 7.78247 8.91892C7.97168 8.69423 8.11358 8.4459 8.18454 8.16209C8.25549 7.87828 8.30279 7.53534 8.30279 7.13328V6.63661C7.95985 6.55383 7.59326 6.48288 7.21485 6.43558C6.83644 6.38828 6.46985 6.36463 6.10326 6.36463C5.31096 6.36463 4.73151 6.51836 4.34128 6.83764C3.95104 7.15693 3.76183 7.6063 3.76183 8.19757C3.76183 8.75336 3.90374 9.16725 4.19937 9.45106C4.48318 9.7467 4.89707 9.8886 5.44104 9.8886ZM14.9368 11.1657C14.724 11.1657 14.5821 11.1303 14.4875 11.0475C14.3929 10.9765 14.3101 10.811 14.2391 10.5863L11.4602 1.44525C11.3892 1.20875 11.3537 1.05501 11.3537 0.972237C11.3537 0.78303 11.4483 0.676601 11.6376 0.676601H12.7964C13.0211 0.676601 13.1749 0.712078 13.2576 0.794856C13.3522 0.865808 13.4232 1.03136 13.4941 1.25605L15.4808 9.08447L17.3256 1.25605C17.3847 1.01954 17.4557 0.865808 17.5503 0.794856C17.6449 0.723903 17.8104 0.676601 18.0233 0.676601H18.9693C19.194 0.676601 19.3477 0.712078 19.4423 0.794856C19.5369 0.865808 19.6197 1.03136 19.667 1.25605L21.5354 9.17908L23.5812 1.25605C23.6522 1.01954 23.735 0.865808 23.8177 0.794856C23.9123 0.723903 24.0661 0.676601 24.2789 0.676601H25.3787C25.5679 0.676601 25.6743 0.771205 25.6743 0.972237C25.6743 1.03136 25.6625 1.09049 25.6507 1.16144C25.6388 1.2324 25.6152 1.327 25.5679 1.45708L22.718 10.5981C22.647 10.8346 22.5642 10.9884 22.4696 11.0593C22.375 11.1303 22.2213 11.1776 22.0203 11.1776H21.0033C20.7786 11.1776 20.6249 11.1421 20.5303 11.0593C20.4357 10.9765 20.3529 10.8228 20.3056 10.5863L18.4726 2.95891L16.6515 10.5745C16.5924 10.811 16.5215 10.9647 16.4268 11.0475C16.3322 11.1303 16.1667 11.1657 15.9538 11.1657H14.9368ZM30.1325 11.485C29.5176 11.485 28.9027 11.4141 28.3114 11.2722C27.7201 11.1303 27.2589 10.9765 26.9515 10.7992C26.7623 10.6927 26.6322 10.5745 26.5849 10.468C26.5376 10.3616 26.5139 10.2434 26.5139 10.1369V9.53384C26.5139 9.28551 26.6085 9.16725 26.7859 9.16725C26.8569 9.16725 26.9278 9.17908 26.9988 9.20273C27.0697 9.22638 27.1761 9.27368 27.2944 9.32098C27.6965 9.49836 28.134 9.64027 28.5952 9.73487C29.0682 9.82948 29.5294 9.87678 30.0024 9.87678C30.7474 9.87678 31.3269 9.7467 31.7289 9.48654C32.131 9.22638 32.3439 8.84797 32.3439 8.36312C32.3439 8.03201 32.2374 7.76003 32.0246 7.53534C31.8117 7.31066 31.4096 7.10963 30.8302 6.92042L29.1155 6.38828C28.2523 6.11629 27.6137 5.71423 27.2235 5.18209C26.8332 4.66177 26.6322 4.08232 26.6322 3.4674C26.6322 2.97073 26.7386 2.53319 26.9515 2.15478C27.1643 1.77637 27.4481 1.44525 27.8029 1.18509C28.1577 0.91311 28.5597 0.712078 29.0327 0.570173C29.5058 0.428268 30.0024 0.369141 30.5227 0.369141C30.7829 0.369141 31.0549 0.380966 31.315 0.416442C31.587 0.451919 31.8354 0.49922 32.0837 0.546522C32.3202 0.605649 32.5449 0.664776 32.7577 0.735729C32.9706 0.806681 33.1362 0.877634 33.2544 0.948586C33.42 1.04319 33.5382 1.13779 33.6092 1.24422C33.6801 1.33882 33.7156 1.4689 33.7156 1.63446V2.19025C33.7156 2.43859 33.621 2.56867 33.4436 2.56867C33.349 2.56867 33.1953 2.52137 32.9943 2.42676C32.3202 2.1193 31.5634 1.96557 30.7238 1.96557C30.0497 1.96557 29.5176 2.072 29.151 2.29668C28.7844 2.52137 28.5952 2.8643 28.5952 3.34915C28.5952 3.68026 28.7135 3.96407 28.95 4.18875C29.1865 4.41343 29.624 4.63812 30.2508 4.83915L31.93 5.37129C32.7814 5.64328 33.3963 6.02169 33.7629 6.50653C34.1295 6.99137 34.3069 7.54717 34.3069 8.16209C34.3069 8.67058 34.2004 9.13177 33.9994 9.53384C33.7866 9.9359 33.5027 10.2907 33.1362 10.5745C32.7696 10.8701 32.332 11.083 31.8235 11.2367C31.2914 11.4023 30.7356 11.485 30.1325 11.485Z" fill="white"/>
<g id="Group">
<path id="Vector_2" fill-rule="evenodd" clip-rule="evenodd" d="M32.3679 17.2321C28.4773 20.1057 22.8248 21.6312 17.9645 21.6312C11.1531 21.6312 5.01573 19.1123 0.380173 14.9261C0.0135852 14.595 0.344696 14.1457 0.782236 14.4058C5.79621 17.3149 11.9809 19.0769 18.3784 19.0769C22.6947 19.0769 27.4367 18.1781 31.8003 16.3334C32.4507 16.0377 33.0065 16.7591 32.3679 17.2321Z" fill="#FF9900"/>
<path id="Vector_3" fill-rule="evenodd" clip-rule="evenodd" d="M33.9879 15.3879C33.4912 14.7493 30.7004 15.0804 29.4351 15.2342C29.0567 15.2815 28.9976 14.9504 29.3405 14.702C31.5637 13.1411 35.2177 13.5904 35.6434 14.1108C36.0691 14.6429 35.5252 18.297 33.4439 20.0471C33.1246 20.3191 32.8172 20.1772 32.9591 19.8224C33.4321 18.6517 34.4845 16.0147 33.9879 15.3879Z" fill="#FF9900"/>
</g>
</g>
</svg>
