<svg width="46" height="44" viewBox="0 0 46 44" fill="none" xmlns="http://www.w3.org/2000/svg">
<g id="Group 74">
<path id="Vector" d="M1.18487 15.3432C1.18487 15.3432 0.101606 14.5623 1.40152 13.5197L4.43014 10.8115C4.43014 10.8115 5.29675 9.89976 6.21301 10.6942L34.1612 31.8539V42.0004C34.1612 42.0004 34.1476 43.5938 32.103 43.4177L1.18487 15.3432Z" fill="#2489CA"/>
<path id="Vector_2" d="M8.38914 21.8828L1.18544 28.432C1.18544 28.432 0.445207 28.9827 1.18544 29.9667L4.53001 33.0088C4.53001 33.0088 5.3244 33.8619 6.49794 32.8915L14.1349 27.1005L8.38914 21.8828Z" fill="#1070B3"/>
<path id="Vector_3" d="M21.0361 21.9383L34.2474 11.8504L34.1616 1.75795C34.1616 1.75795 33.5974 -0.444685 31.7152 0.701771L14.1348 16.7025L21.0361 21.9383Z" fill="#0877B9"/>
<path id="Vector_4" d="M32.103 43.4316C32.8703 44.217 33.8001 43.9597 33.8001 43.9597L44.0956 38.8864C45.4136 37.9882 45.2285 36.8733 45.2285 36.8733V6.57805C45.2285 5.24654 43.8654 4.78615 43.8654 4.78615L34.9421 0.484689C32.9922 -0.720442 31.7148 0.701342 31.7148 0.701342C31.7148 0.701342 33.3578 -0.481221 34.1612 1.75752V41.8157C34.1612 42.0911 34.1025 42.3619 33.9852 42.6056C33.7505 43.0795 33.2404 43.5219 32.0173 43.3368L32.103 43.4316Z" fill="#3C99D4"/>
</g>
</svg>
