<svg  viewBox="0 0 42 40" fill="none" xmlns="http://www.w3.org/2000/svg">
<g id="Group">
<g id="Group_2">
<path id="Vector" d="M14.6293 23.2337L14.7961 23.4005C14.7394 23.342 14.6839 23.2862 14.6293 23.2337ZM10.4072 23.4127L10.5953 23.2246C10.5307 23.2831 10.4679 23.3459 10.4072 23.4127Z" fill="#00B8A9"/>
</g>
<path id="Vector_2" opacity="0.197" d="M39.5889 12.5554C43.1907 21.5785 39.7952 31.8852 31.5349 36.9999C23.2749 42.1149 12.5347 40.5614 6.06273 33.3157L5.44944 33.9289C4.90422 34.4707 4.17942 34.7938 3.41207 34.8374C2.64471 34.8809 1.888 34.6418 1.28501 34.1652C1.37843 34.0915 1.4673 34.0126 1.55193 33.9289L10.2083 25.2846L10.3988 25.0945C10.9535 24.5818 11.6811 24.2971 12.4365 24.2971C13.1918 24.2971 13.9194 24.5818 14.4741 25.0945L14.6397 25.2631L18.5636 29.1864C18.586 29.207 18.61 29.2258 18.6324 29.2465C19.2319 29.7906 20.017 30.0843 20.8264 30.0672C21.6357 30.0501 22.4078 29.7235 22.9837 29.1546L39.5889 12.5554ZM10.5675 2.93688C18.0792 -1.65218 27.7071 -0.79806 34.2932 5.04245L34.5661 4.76947C35.1156 4.22346 35.8473 3.89957 36.6209 3.85993C37.3945 3.8203 38.1555 4.06772 38.7579 4.55473C38.6499 4.63874 38.5474 4.73004 38.4515 4.82771L22.8117 20.4669C22.2551 20.9893 21.5205 21.2801 20.7571 21.2801C19.9938 21.2801 19.2591 20.9893 18.7025 20.4669L14.7562 16.5202C14.7195 16.4805 14.6919 16.4344 14.6552 16.3977C13.4207 15.1802 11.437 15.1802 10.2026 16.3977C10.1625 16.4344 10.138 16.4805 10.1013 16.5202L1.61319 25.0086C-0.577906 16.4826 3.05603 7.52624 10.5675 2.93688Z" fill="#01BAAB"/>
<g id="Mask group">
<mask id="mask0_3946_4066" style="mask-type:luminance" maskUnits="userSpaceOnUse" x="0" y="0" width="42" height="40">
<g id="Group_3">
<path id="Vector_3" d="M39.5889 12.5554C43.1907 21.5785 39.7952 31.8852 31.5349 36.9999C23.2749 42.1149 12.5347 40.5614 6.06273 33.3157L5.44944 33.9289C4.90422 34.4707 4.17942 34.7938 3.41207 34.8374C2.64471 34.8809 1.888 34.6418 1.28501 34.1652C1.37843 34.0915 1.4673 34.0126 1.55193 33.9289L10.2083 25.2846L10.3988 25.0945C10.9535 24.5818 11.6811 24.2971 12.4365 24.2971C13.1918 24.2971 13.9194 24.5818 14.4741 25.0945L14.6397 25.2631L18.5636 29.1864C18.586 29.207 18.61 29.2258 18.6324 29.2465C19.2319 29.7906 20.017 30.0843 20.8264 30.0672C21.6357 30.0501 22.4078 29.7235 22.9837 29.1546L39.5889 12.5554ZM10.5675 2.93688C18.0792 -1.65218 27.7071 -0.79806 34.2932 5.04245L34.5661 4.76947C35.1156 4.22346 35.8473 3.89957 36.6209 3.85993C37.3945 3.8203 38.1555 4.06772 38.7579 4.55473C38.6499 4.63874 38.5474 4.73004 38.4515 4.82771L22.8117 20.4669C22.2551 20.9893 21.5205 21.2801 20.7571 21.2801C19.9938 21.2801 19.2591 20.9893 18.7025 20.4669L14.7562 16.5202C14.7195 16.4805 14.6919 16.4344 14.6552 16.3977C13.4207 15.1802 11.437 15.1802 10.2026 16.3977C10.1625 16.4344 10.138 16.4805 10.1013 16.5202L1.61319 25.0086C-0.577906 16.4826 3.05603 7.52624 10.5675 2.93688Z" fill="white"/>
</g>
</mask>
<g mask="url(#mask0_3946_4066)">
<path id="Vector_4" d="M-4.75658 48.4508C11.0878 48.4508 23.9321 35.6635 23.9321 19.8895C23.9321 4.11547 11.0878 -8.67188 -4.75658 -8.67188C-20.6009 -8.67188 -33.4453 4.11547 -33.4453 19.8895C-33.4453 35.6635 -20.6009 48.4508 -4.75658 48.4508Z" fill="url(#paint0_linear_3946_4066)"/>
</g>
</g>
<g id="Mask group_2">
<mask id="mask1_3946_4066" style="mask-type:luminance" maskUnits="userSpaceOnUse" x="0" y="0" width="42" height="40">
<g id="Group_4">
<path id="Vector_5" d="M39.5889 12.5554C43.1907 21.5785 39.7952 31.8852 31.5349 36.9999C23.2749 42.1149 12.5347 40.5614 6.06273 33.3157L5.44944 33.9289C4.90422 34.4707 4.17942 34.7938 3.41207 34.8374C2.64471 34.8809 1.888 34.6418 1.28501 34.1652C1.37843 34.0915 1.4673 34.0126 1.55193 33.9289L10.2083 25.2846L10.3988 25.0945C10.9535 24.5818 11.6811 24.2971 12.4365 24.2971C13.1918 24.2971 13.9194 24.5818 14.4741 25.0945L14.6397 25.2631L18.5636 29.1864C18.586 29.207 18.61 29.2258 18.6324 29.2465C19.2319 29.7906 20.017 30.0843 20.8264 30.0672C21.6357 30.0501 22.4078 29.7235 22.9837 29.1546L39.5889 12.5554ZM10.5675 2.93688C18.0792 -1.65218 27.7071 -0.79806 34.2932 5.04245L34.5661 4.76947C35.1156 4.22346 35.8473 3.89957 36.6209 3.85993C37.3945 3.8203 38.1555 4.06772 38.7579 4.55473C38.6499 4.63874 38.5474 4.73004 38.4515 4.82771L22.8117 20.4669C22.2551 20.9893 21.5205 21.2801 20.7571 21.2801C19.9938 21.2801 19.2591 20.9893 18.7025 20.4669L14.7562 16.5202C14.7195 16.4805 14.6919 16.4344 14.6552 16.3977C13.4207 15.1802 11.437 15.1802 10.2026 16.3977C10.1625 16.4344 10.138 16.4805 10.1013 16.5202L1.61319 25.0086C-0.577906 16.4826 3.05603 7.52624 10.5675 2.93688Z" fill="white"/>
</g>
</mask>
<g mask="url(#mask1_3946_4066)">
<path id="Vector_6" opacity="0.3" d="M33.7506 58.3957C46.9189 58.3957 57.594 47.7207 57.594 34.5524C57.594 21.384 46.9189 10.709 33.7506 10.709C20.5823 10.709 9.90723 21.384 9.90723 34.5524C9.90723 47.7207 20.5823 58.3957 33.7506 58.3957Z" fill="url(#paint1_linear_3946_4066)"/>
</g>
</g>
<g id="Mask group_3">
<mask id="mask2_3946_4066" style="mask-type:luminance" maskUnits="userSpaceOnUse" x="0" y="0" width="42" height="40">
<g id="Group_5">
<path id="Vector_7" d="M39.5889 12.5554C43.1907 21.5785 39.7952 31.8852 31.5349 36.9999C23.2749 42.1149 12.5347 40.5614 6.06273 33.3157L5.44944 33.9289C4.90422 34.4707 4.17942 34.7938 3.41207 34.8374C2.64471 34.8809 1.888 34.6418 1.28501 34.1652C1.37843 34.0915 1.4673 34.0126 1.55193 33.9289L10.2083 25.2846L10.3988 25.0945C10.9535 24.5818 11.6811 24.2971 12.4365 24.2971C13.1918 24.2971 13.9194 24.5818 14.4741 25.0945L14.6397 25.2631L18.5636 29.1864C18.586 29.207 18.61 29.2258 18.6324 29.2465C19.2319 29.7906 20.017 30.0843 20.8264 30.0672C21.6357 30.0501 22.4078 29.7235 22.9837 29.1546L39.5889 12.5554ZM10.5675 2.93688C18.0792 -1.65218 27.7071 -0.79806 34.2932 5.04245L34.5661 4.76947C35.1156 4.22346 35.8473 3.89957 36.6209 3.85993C37.3945 3.8203 38.1555 4.06772 38.7579 4.55473C38.6499 4.63874 38.5474 4.73004 38.4515 4.82771L22.8117 20.4669C22.2551 20.9893 21.5205 21.2801 20.7571 21.2801C19.9938 21.2801 19.2591 20.9893 18.7025 20.4669L14.7562 16.5202C14.7195 16.4805 14.6919 16.4344 14.6552 16.3977C13.4207 15.1802 11.437 15.1802 10.2026 16.3977C10.1625 16.4344 10.138 16.4805 10.1013 16.5202L1.61319 25.0086C-0.577906 16.4826 3.05603 7.52624 10.5675 2.93688Z" fill="white"/>
</g>
</mask>
<g mask="url(#mask2_3946_4066)">
<path id="Vector_8" opacity="0.5" d="M31.2072 49.2158C41.8405 49.2158 50.4606 40.5958 50.4606 29.9624C50.4606 19.329 41.8405 10.709 31.2072 10.709C20.5738 10.709 3.53027 27.8353 3.53027 38.4684C3.53027 49.1018 20.5738 49.2158 31.2072 49.2158Z" fill="#01BBAC"/>
</g>
</g>
</g>
<defs>
<linearGradient id="paint0_linear_3946_4066" x1="4776.56" y1="1124.47" x2="4776.56" y2="4581.19" gradientUnits="userSpaceOnUse">
<stop stop-color="#0EE3D1"/>
<stop offset="1" stop-color="#019B8E"/>
</linearGradient>
<linearGradient id="paint1_linear_3946_4066" x1="2394.25" y1="10.709" x2="2394.25" y2="4779.39" gradientUnits="userSpaceOnUse">
<stop stop-color="#01BFAF"/>
<stop offset="1" stop-color="#019B8E"/>
</linearGradient>
</defs>
</svg>
