<svg  viewBox="0 0 36 44" fill="none" xmlns="http://www.w3.org/2000/svg">
<g id="Group 22">
<path id="Vector" d="M16.2676 0H23.472V33.0203C19.7817 33.7183 17.0651 33.9929 14.1258 33.9929C5.32651 33.9838 0.746094 30.0527 0.746094 22.5028C0.746094 15.2284 5.60466 10.5074 13.1336 10.5074C14.3019 10.5074 15.192 10.5993 16.2676 10.8748V0ZM16.52 16.8254C15.6762 16.5498 14.9809 16.458 14.0907 16.458C10.4469 16.458 8.34212 18.6807 8.34212 22.5759C8.34212 26.3684 10.3542 28.4625 14.0445 28.4625C14.8418 28.4625 15.4908 28.4176 16.52 28.2798V16.8254Z" fill="#2BA977"/>
<path id="Vector_2" d="M35.2531 11.3939V27.9267C35.2531 33.6203 34.8266 36.3583 33.5749 38.7189C32.4065 40.9883 30.8674 42.4194 27.6871 44L21.002 40.8497C24.1823 39.3717 25.7214 38.0657 26.7043 36.0727C27.7334 34.0346 28.0579 31.674 28.0579 25.4651V11.394H35.2531V11.3939ZM27.3319 0H34.5363V7.32031H27.3319V0Z" fill="#2BA977"/>
</g>
</svg>
