<svg width="44" height="44" viewBox="0 0 44 44" fill="none" xmlns="http://www.w3.org/2000/svg">
<g id="figma">
<path id="Vector" d="M14.6663 44.0006C18.7143 44.0006 21.9997 40.7153 21.9997 36.6673V29.334H14.6663C10.6183 29.334 7.33301 32.6193 7.33301 36.6673C7.33301 40.7153 10.6183 44.0006 14.6663 44.0006Z" fill="#0ACF83"/>
<path id="Vector_2" d="M7.33301 21.9993C7.33301 17.9513 10.6183 14.666 14.6663 14.666H21.9997V29.3327H14.6663C10.6183 29.3327 7.33301 26.0473 7.33301 21.9993Z" fill="#A259FF"/>
<path id="Vector_3" d="M7.33301 7.33333C7.33301 3.28533 10.6183 0 14.6663 0H21.9997V14.6667H14.6663C10.6183 14.6667 7.33301 11.3813 7.33301 7.33333Z" fill="#F24E1E"/>
<path id="Vector_4" d="M22 0H29.3333C33.3814 0 36.6667 3.28533 36.6667 7.33333C36.6667 11.3813 33.3814 14.6667 29.3333 14.6667H22V0Z" fill="#FF7262"/>
<path id="Vector_5" d="M36.6667 21.9993C36.6667 26.0473 33.3814 29.3327 29.3333 29.3327C25.2853 29.3327 22 26.0473 22 21.9993C22 17.9513 25.2853 14.666 29.3333 14.666C33.3814 14.666 36.6667 17.9513 36.6667 21.9993Z" fill="#1ABCFE"/>
</g>
</svg>
