<svg viewBox="0 0 32 44" fill="none" xmlns="http://www.w3.org/2000/svg">
<g id="Group 28">
<path id="Vector" d="M20.9748 15.8918L16.5741 19.9892L12.4893 11.7463L14.5995 7.00672C15.1328 6.06131 16.0051 6.04882 16.5385 7.00672L20.9748 15.8918Z" fill="#FFA000"/>
<path id="Vector_2" d="M16.5761 19.9892L0.115234 35.2995L12.4912 11.748L16.5761 19.9892Z" fill="#F57F17"/>
<path id="Vector_3" d="M25.8001 9.62508C26.5885 8.87411 27.4002 9.1274 27.6053 10.1941L31.8846 35.0906L17.691 43.6118C17.1933 43.89 15.8733 43.9988 15.8733 43.9988C15.8733 43.9988 14.6728 43.8526 14.2126 43.5993L0.115234 35.2975L25.8001 9.62508Z" fill="#FFCA28"/>
<path id="Vector_4" d="M12.4912 11.7472L0.115234 35.2986L5.63073 0.874944C5.83765 -0.191764 6.44236 -0.300576 6.9882 0.644835L12.4912 11.7472Z" fill="#FFA000"/>
</g>
</svg>
