<svg viewBox="0 0 46 44" fill="none" xmlns="http://www.w3.org/2000/svg">
<g id="Group 57">
<path id="Vector" d="M23.0003 0C10.544 0 0.443359 10.0989 0.443359 22.5569C0.443359 32.5233 6.90659 40.9786 15.8692 43.9613C16.9965 44.17 17.4104 43.4719 17.4104 42.8761C17.4104 42.3383 17.3894 40.5612 17.3798 38.6764C11.1043 40.0409 9.78014 36.015 9.78014 36.015C8.75406 33.4077 7.27562 32.7146 7.27562 32.7146C5.22913 31.3145 7.42989 31.3431 7.42989 31.3431C9.69505 31.5024 10.8878 33.6677 10.8878 33.6677C12.8996 37.1163 16.1646 36.1192 17.4518 35.543C17.6542 34.0849 18.2389 33.09 18.8839 32.5267C13.8738 31.9561 8.60687 30.022 8.60687 21.3789C8.60687 18.9163 9.48806 16.9039 10.9311 15.3243C10.6969 14.7561 9.92485 12.4619 11.1496 9.35483C11.1496 9.35483 13.0438 8.74855 17.3544 11.667C19.1535 11.1671 21.0833 10.9166 23.0003 10.9081C24.9173 10.9166 26.8484 11.1671 28.6511 11.667C32.9566 8.74855 34.8481 9.35483 34.8481 9.35483C36.0759 12.4619 35.3035 14.7561 35.0693 15.3243C36.5155 16.9039 37.3907 18.9161 37.3907 21.3789C37.3907 30.0425 32.1138 31.9503 27.091 32.5086C27.9 33.2087 28.6209 34.5815 28.6209 36.6858C28.6209 39.7039 28.5947 42.1331 28.5947 42.8761C28.5947 43.4763 29.0007 44.1797 30.1443 43.9582C39.1019 40.9722 45.557 32.52 45.557 22.5569C45.557 10.0989 35.4577 0 23.0003 0Z" fill="white"/>
<path id="Vector_2" d="M8.89127 32.1325C8.84173 32.2445 8.66518 32.2781 8.50472 32.2013C8.34108 32.1277 8.24908 31.9749 8.30216 31.8624C8.35081 31.747 8.52736 31.7148 8.69065 31.7923C8.85465 31.8657 8.94806 32.02 8.89127 32.1325ZM10.0008 33.1225C9.89329 33.2223 9.68294 33.1759 9.54017 33.0183C9.39263 32.861 9.36503 32.6509 9.47419 32.5495C9.58511 32.4499 9.78909 32.4964 9.93698 32.6539C10.0845 32.8129 10.1132 33.0218 10.0007 33.1227L10.0008 33.1225ZM10.7621 34.3892C10.6238 34.4852 10.3977 34.3952 10.2581 34.1946C10.1199 33.9941 10.1199 33.7535 10.2611 33.6571C10.4012 33.5607 10.6238 33.6474 10.7653 33.8464C10.9033 34.0504 10.9033 34.291 10.7619 34.3893L10.7621 34.3892ZM12.0493 35.8563C11.9256 35.9925 11.6624 35.9561 11.4696 35.77C11.2725 35.5881 11.2175 35.33 11.3415 35.1936C11.4666 35.057 11.7314 35.0954 11.9256 35.2799C12.1215 35.4614 12.1813 35.7215 12.0495 35.8563H12.0493ZM13.713 36.3516C13.6586 36.5282 13.405 36.6085 13.1495 36.5335C12.8944 36.4562 12.7274 36.2492 12.7789 36.0707C12.8319 35.8929 13.0867 35.8092 13.3441 35.8895C13.5989 35.9665 13.7662 36.1719 13.7131 36.3516H13.713ZM15.6066 36.5616C15.613 36.7477 15.3963 36.902 15.1281 36.9054C14.8583 36.9112 14.6401 36.7607 14.6373 36.5777C14.6373 36.3898 14.8491 36.237 15.1187 36.2326C15.3869 36.2273 15.6066 36.3768 15.6066 36.5616ZM17.4666 36.4903C17.4988 36.6718 17.3124 36.8583 17.0461 36.9078C16.7843 36.9556 16.5419 36.8436 16.5085 36.6637C16.4759 36.4776 16.6659 36.2913 16.9272 36.243C17.194 36.1967 17.4327 36.3058 17.4666 36.4903Z" fill="white"/>
</g>
</svg>
