<svg viewBox="0 0 60 12" fill="none" xmlns="http://www.w3.org/2000/svg">
<g id="Frame">
<path id="Vector" d="M43.7383 0.00585938H54.0325V1.9059H49.9489V11.9017H47.9069V1.9059H43.7383V0.00585938Z" fill="white"/>
<path id="Vector_2" d="M26.8078 0.00585938V1.9059H18.5563V4.96248H25.1922V6.86251H18.5563V10.0017H26.8078V11.9017H16.5145V1.9059H16.5137V0.00585938H26.8078Z" fill="white"/>
<path id="Vector_3" d="M31.9485 0.00976562H29.2764L38.8473 11.9057H41.5272L36.7411 5.9618L41.5195 0.0188414L38.8473 0.0229709L35.4033 4.3003L31.9485 0.00976562Z" fill="white"/>
<path id="Vector_4" d="M34.6903 8.50754L33.3522 6.84375L29.2686 11.9152H31.9483L34.6903 8.50754Z" fill="white"/>
<path id="Vector_5" fill-rule="evenodd" clip-rule="evenodd" d="M16.5862 11.9009L7.00246 0H4.4502V11.8959H6.49201V2.54274L14.0212 11.9009H16.5862Z" fill="white"/>
</g>
</svg>
