<svg width="44" height="44" viewBox="0 0 44 44" fill="none" xmlns="http://www.w3.org/2000/svg">
<g id="Group 26">
<path id="Vector" d="M43.1672 26.357C42.9114 25.5801 42.2413 25.039 41.3747 24.9091C40.9661 24.8479 40.4982 24.874 39.9444 24.9885C38.9791 25.1882 38.2631 25.2642 37.7404 25.2789C39.7131 21.9392 41.3171 18.1308 42.2405 14.5457C43.7337 8.74883 42.9357 6.10798 42.0033 4.91348C39.5358 1.75174 35.9356 0.0532297 31.5924 0.00125829C29.2755 -0.0271505 27.2415 0.431568 26.1804 0.761445C25.1925 0.586647 24.1303 0.489054 23.0158 0.471006C20.9265 0.437584 19.0805 0.894298 17.5032 1.83296C16.6299 1.53684 15.2284 1.1194 13.6099 0.853021C9.80327 0.226356 6.73524 0.714654 4.49114 2.30438C1.77374 4.22916 0.514039 7.57338 0.747015 12.2441C0.821008 13.7271 1.64826 18.239 2.95079 22.5181C3.69938 24.9776 4.49764 27.0201 5.32339 28.5892C6.49443 30.8143 7.74747 32.1246 9.15417 32.5952C9.94258 32.8586 11.3751 33.0431 12.8818 31.7847C13.0728 32.0167 13.3276 32.2471 13.6657 32.4612C14.0952 32.7327 14.6203 32.9547 15.1447 33.0862C17.0347 33.5599 18.805 33.4414 20.3154 32.7773C20.3247 33.0467 20.3319 33.3041 20.3379 33.5263C20.3479 33.8868 20.3579 34.2402 20.371 34.5708C20.4605 36.8057 20.6122 38.5435 21.0615 39.7594C21.0861 39.8262 21.1193 39.9282 21.1543 40.0363C21.3784 40.7245 21.7532 41.8765 22.7068 42.7788C23.6942 43.7134 24.8886 44 25.9825 44C26.5311 44 27.0545 43.9278 27.5136 43.8292C29.1501 43.4774 31.0088 42.9417 32.3533 41.0219C33.6245 39.2071 34.2425 36.4737 34.3543 32.1667C34.3688 32.0449 34.3821 31.9286 34.3949 31.8178L34.4216 31.5902L34.7211 31.6166L34.7982 31.6218C36.4651 31.698 38.5032 31.3435 39.7549 30.7605C40.744 30.3003 43.9135 28.6223 43.1672 26.357Z" fill="black"/>
<path id="Vector_2" d="M40.3173 26.7979C35.3611 27.8231 35.0203 26.1405 35.0203 26.1405C40.2531 18.3543 42.4407 8.47082 40.5531 6.05189C35.4029 -0.546479 26.488 2.57415 26.3392 2.65503L26.2913 2.66372C25.3121 2.45985 24.2164 2.33852 22.9847 2.3183C20.7422 2.28154 19.0411 2.90787 17.7502 3.88948C17.7502 3.88948 1.84679 -2.68032 2.58655 12.1521C2.74387 15.3075 7.09677 36.0277 12.2886 29.7693C14.1862 27.4807 16.0199 25.5457 16.0199 25.5457C16.9305 26.1523 18.0207 26.4618 19.1636 26.3507L19.2524 26.2752C19.2247 26.5592 19.2374 26.8371 19.2879 27.1662C17.9503 28.6647 18.3435 28.9277 15.6697 29.4797C12.9642 30.0388 14.5535 31.0341 15.5913 31.2945C16.8493 31.6098 19.7597 32.0567 21.7261 29.2962L21.6478 29.6112C22.1718 30.0321 22.5397 32.349 22.4781 34.4494C22.4164 36.5496 22.3752 37.9916 22.788 39.118C23.2012 40.2443 23.6126 42.7785 27.1276 42.0233C30.0645 41.3922 31.5865 39.7567 31.7983 37.0284C31.9484 35.0889 32.2886 35.3757 32.3099 33.6416L32.5827 32.8207C32.8972 30.1916 32.6327 29.3433 34.442 29.7379L34.882 29.7766C36.2135 29.8373 37.9567 29.5617 38.9797 29.085C41.1825 28.0599 42.4891 26.3482 40.3169 26.7979H40.3173Z" fill="#336791"/>
<path id="Vector_3" d="M18.6813 13.5631C18.2347 13.5008 17.8302 13.5585 17.6256 13.7139C17.5106 13.8013 17.4749 13.9025 17.4652 13.9722C17.4396 14.1569 17.5686 14.3611 17.6479 14.4664C17.8722 14.7645 18.1998 14.9694 18.5241 15.0145C18.5711 15.0212 18.618 15.0242 18.6644 15.0242C19.2052 15.0242 19.697 14.6019 19.7403 14.2902C19.7945 13.8999 19.2294 13.6397 18.6813 13.5633V13.5631ZM33.4771 13.5755C33.4345 13.2695 32.8915 13.1823 32.3762 13.2542C31.8616 13.326 31.3627 13.559 31.4043 13.8656C31.4377 14.1041 31.8671 14.5112 32.3754 14.5112C32.4184 14.5112 32.4617 14.5083 32.5054 14.5021C32.8447 14.455 33.0937 14.2389 33.212 14.1144C33.392 13.9246 33.4963 13.713 33.4771 13.5755Z" fill="white"/>
<path id="Vector_4" d="M41.9663 26.6807C41.7773 26.1077 41.169 25.9234 40.1585 26.1326C37.1579 26.7536 36.0834 26.3235 35.7306 26.0629C38.0628 22.5001 39.9815 18.1933 41.0165 14.1752C41.5068 12.2718 41.7776 10.5041 41.7998 9.06323C41.8243 7.48185 41.5557 6.31976 41.0017 5.60988C38.7683 2.7481 35.4903 1.21302 31.5223 1.1709C28.7944 1.14016 26.4896 1.84018 26.0429 2.03704C25.102 1.80242 24.0762 1.65837 22.9595 1.63998C20.9117 1.60673 19.1415 2.09837 17.676 3.10054C17.0394 2.8629 15.3942 2.29656 13.3823 1.97153C9.90395 1.41004 7.13989 1.8355 5.16742 3.23673C2.81382 4.90884 1.72726 7.89779 1.93774 12.1204C2.00857 13.541 2.81582 17.9113 4.0897 22.0966C5.76653 27.6052 7.58935 30.7237 9.50716 31.3652C9.73164 31.4402 9.99045 31.4927 10.2759 31.4927C10.9755 31.4927 11.8333 31.1765 12.7257 30.1007C13.8142 28.7913 14.9401 27.5137 16.1022 26.2695C16.8561 26.6752 17.6844 26.9018 18.5314 26.9246C18.5331 26.9468 18.5353 26.969 18.5373 26.9911C18.3915 27.1654 18.2487 27.3423 18.109 27.5216C17.522 28.2688 17.3999 28.4244 15.5106 28.8144C14.9731 28.9257 13.5458 29.2207 13.5248 30.224C13.5021 31.3202 15.2121 31.7806 15.4069 31.8294C16.0858 31.9999 16.7399 32.0839 17.3637 32.0839C18.8807 32.0839 20.2158 31.5839 21.2827 30.6165C21.2498 34.5246 21.4123 38.3755 21.8803 39.5488C22.2636 40.5093 23.1998 42.8568 26.1572 42.8566C26.5911 42.8566 27.0688 42.806 27.5942 42.693C30.6807 42.0296 32.0211 40.6616 32.5395 37.6457C32.817 36.0339 33.2931 32.1852 33.5171 30.1207C33.9897 30.2686 34.5982 30.3363 35.2559 30.3361C36.6278 30.3361 38.2108 30.0439 39.2036 29.5818C40.3188 29.0624 42.3312 27.788 41.9663 26.6807ZM34.616 12.7303C34.6058 13.3398 34.5222 13.8931 34.4335 14.4706C34.338 15.0918 34.2394 15.734 34.2146 16.5135C34.1901 17.2722 34.2845 18.061 34.3759 18.8238C34.5605 20.3646 34.75 21.9508 34.0166 23.516C33.8947 23.2995 33.7862 23.0758 33.6916 22.846C33.6004 22.6245 33.4025 22.2685 33.1283 21.7759C32.0619 19.8581 29.5647 15.3672 30.8431 13.5346C31.2238 12.9892 32.1903 12.4283 34.616 12.7303ZM31.6756 2.40502C35.2309 2.48373 38.0433 3.81744 40.0345 6.36889C41.5617 8.32593 39.88 17.2308 35.0116 24.913C34.9627 24.8506 34.9135 24.7884 34.864 24.7264L34.8023 24.6492C36.0604 22.5658 35.8144 20.5045 35.5954 18.677C35.5054 17.927 35.4204 17.2186 35.4421 16.5531C35.4644 15.8479 35.5574 15.243 35.6474 14.6581C35.7579 13.9374 35.8704 13.1915 35.8394 12.3124C35.8626 12.2201 35.8719 12.1112 35.8597 11.9818C35.7806 11.1387 34.8207 8.61554 32.8642 6.3318C31.794 5.08264 30.2333 3.68476 28.1023 2.74192C29.0189 2.55141 30.2723 2.37377 31.6756 2.40502ZM11.7813 29.3132C10.798 30.4987 10.1191 30.2715 9.89579 30.1969C8.44093 29.7103 6.75277 26.6268 5.26441 21.7371C3.97654 17.5062 3.22395 13.2517 3.16429 12.0587C2.97631 8.28566 3.88838 5.65617 5.87535 4.24307C9.10903 1.94363 14.4255 3.31995 16.5618 4.01798C16.5311 4.04839 16.4991 4.0768 16.4688 4.10771C12.9632 7.65782 13.0463 13.7233 13.055 14.0941C13.0546 14.2372 13.0666 14.4397 13.083 14.7183C13.1433 15.7385 13.2556 17.6372 12.9557 19.7874C12.677 21.7856 13.2913 23.7413 14.6407 25.1532C14.7791 25.2978 14.9247 25.4355 15.0768 25.5656C14.4762 26.2107 13.1708 27.6371 11.7813 29.3132ZM15.5274 24.3011C14.4398 23.1631 13.9459 21.5802 14.172 19.9579C14.4887 17.6865 14.3718 15.7082 14.309 14.6454C14.3002 14.4967 14.2924 14.3663 14.2879 14.2636C14.8 13.8082 17.1732 12.5331 18.8657 12.922C19.638 13.0993 20.1086 13.6267 20.3043 14.5338C21.3168 19.2301 20.4382 21.1875 19.7323 22.7605C19.5868 23.0845 19.4493 23.3908 19.332 23.7077L19.241 23.9527C19.0107 24.572 18.7964 25.1478 18.6636 25.6946C17.5074 25.6913 16.3826 25.196 15.5274 24.3009V24.3011ZM15.7049 30.6346C15.3672 30.55 15.0636 30.4031 14.8855 30.2813C15.0343 30.2111 15.2991 30.1155 15.7584 30.0206C17.981 29.5619 18.3243 29.238 19.0739 28.2837C19.2457 28.0648 19.4405 27.8168 19.7103 27.5146L19.7107 27.5143C20.1124 27.0631 20.2963 27.1396 20.6296 27.2783C20.8997 27.3903 21.1628 27.7299 21.2695 28.1035C21.32 28.28 21.3767 28.6149 21.1912 28.8756C19.6253 31.0741 17.3436 31.0459 15.7049 30.6346ZM27.3369 41.4888C24.6178 42.073 23.6551 40.6818 23.0207 39.0914C22.6112 38.0647 22.4099 33.4347 22.5527 28.3216C22.5545 28.2536 22.5449 28.1879 22.5262 28.1261C22.5095 28.004 22.4841 27.8832 22.4502 27.7648C22.2379 27.0208 21.7205 26.3985 21.0997 26.1405C20.853 26.038 20.4004 25.85 19.8565 25.9896C19.9725 25.5103 20.1736 24.969 20.3918 24.383L20.4832 24.1365C20.5862 23.8586 20.7156 23.5706 20.8522 23.2658C21.591 21.6201 22.6027 19.366 21.5046 14.2736C21.0933 12.3662 19.7198 11.4347 17.6377 11.6511C16.3895 11.7806 15.2474 12.2856 14.6778 12.5752C14.5553 12.6374 14.4433 12.6976 14.3387 12.756C14.4977 10.8343 15.0983 7.24272 17.3451 4.97034C18.7597 3.53987 20.6437 2.83332 22.9392 2.87143C27.4621 2.94562 30.3624 5.27315 31.9993 7.2128C33.4098 8.88408 34.1736 10.5677 34.4784 11.4758C32.1861 11.242 30.6271 11.6957 29.8368 12.8287C28.1175 15.2933 30.7774 20.0767 32.0558 22.3756C32.2902 22.7969 32.4926 23.1611 32.5562 23.3158C32.9725 24.3275 33.5115 25.0029 33.9049 25.4959C34.0256 25.647 34.1426 25.7935 34.2316 25.9216C33.5373 26.1223 32.2902 26.586 32.4039 28.904C32.3122 30.0671 31.6605 35.5126 31.3293 37.4365C30.8922 39.9783 29.9595 40.925 27.3369 41.489V41.4888ZM38.6864 28.4648C37.9765 28.7952 36.7885 29.043 35.6599 29.0963C34.4134 29.1548 33.7788 28.9563 33.6294 28.8341C33.5595 27.3896 34.0956 27.2387 34.663 27.079C34.7522 27.0539 34.8392 27.0293 34.9231 26.9999C34.9753 27.0425 35.0325 27.0848 35.0951 27.1263C36.097 27.7894 37.884 27.8609 40.4069 27.3387L40.4346 27.3331C40.0943 27.6522 39.512 28.0803 38.6864 28.4648Z" fill="white"/>
</g>
</svg>
