<svg  viewBox="0 0 36 36" fill="none" xmlns="http://www.w3.org/2000/svg">
<g id="Group 62">
<path id="Vector" d="M17.8703 0C8.73125 0 9.30188 3.98396 9.30188 3.98396L9.31203 8.11146H18.0333V9.35065H5.84809C5.84809 9.35065 0 8.68394 0 17.9534C0 27.2231 5.10436 26.8944 5.10436 26.8944H8.15062V22.5929C8.15062 22.5929 7.98639 17.4618 13.1735 17.4618H21.8234C21.8234 17.4618 26.6832 17.5408 26.6832 12.7405V4.80342C26.6832 4.80342 27.4213 0 17.8703 0ZM13.0614 2.77566C13.2675 2.77548 13.4716 2.81614 13.6621 2.89534C13.8525 2.97453 14.0255 3.09069 14.1713 3.23718C14.317 3.38367 14.4325 3.55761 14.5113 3.74904C14.5901 3.94047 14.6306 4.14564 14.6304 4.35281C14.6306 4.55998 14.5901 4.76515 14.5113 4.95658C14.4325 5.14801 14.317 5.32195 14.1713 5.46844C14.0255 5.61493 13.8525 5.73109 13.6621 5.81028C13.4716 5.88948 13.2675 5.93014 13.0614 5.92996C12.8553 5.93014 12.6512 5.88948 12.4608 5.81028C12.2704 5.73109 12.0973 5.61493 11.9516 5.46844C11.8059 5.32195 11.6903 5.14801 11.6115 4.95658C11.5328 4.76515 11.4923 4.55998 11.4925 4.35281C11.4923 4.14564 11.5328 3.94047 11.6115 3.74904C11.6903 3.55761 11.8059 3.38367 11.9516 3.23718C12.0973 3.09069 12.2704 2.97453 12.4608 2.89534C12.6512 2.81614 12.8553 2.77548 13.0614 2.77566Z" fill="url(#paint0_linear_3934_2908)"/>
<path id="Vector_2" d="M18.1309 35.9994C27.27 35.9994 26.6994 32.0154 26.6994 32.0154L26.6892 27.8881H17.9678V26.6489H30.153C30.153 26.6489 36.0011 27.3156 36.0011 18.0458C36.0011 8.77621 30.8968 9.10496 30.8968 9.10496H27.8505V13.4063C27.8505 13.4063 28.0147 18.5374 22.8276 18.5374H14.1777C14.1777 18.5374 9.31791 18.4585 9.31791 23.2589V31.1961C9.31791 31.1961 8.57995 35.9994 18.1308 35.9994H18.1309ZM22.9398 33.224C22.7337 33.2242 22.5296 33.1835 22.3392 33.1043C22.1488 33.0251 21.9757 32.909 21.83 32.7625C21.6843 32.616 21.5687 32.4421 21.4899 32.2506C21.4111 32.0592 21.3707 31.854 21.3709 31.6469C21.3707 31.4397 21.4111 31.2345 21.4899 31.043C21.5687 30.8516 21.6842 30.6776 21.8299 30.5311C21.9757 30.3846 22.1487 30.2685 22.3392 30.1893C22.5296 30.11 22.7337 30.0694 22.9398 30.0696C23.1459 30.0694 23.35 30.11 23.5404 30.1892C23.7309 30.2684 23.9039 30.3846 24.0496 30.5311C24.1954 30.6776 24.3109 30.8515 24.3897 31.0429C24.4685 31.2344 24.5089 31.4395 24.5088 31.6467C24.5089 31.8539 24.4685 32.059 24.3897 32.2505C24.3109 32.4419 24.1954 32.6159 24.0496 32.7623C23.9039 32.9088 23.7309 33.025 23.5404 33.1042C23.35 33.1834 23.1459 33.224 22.9398 33.2239V33.224Z" fill="url(#paint1_linear_3934_2908)"/>
</g>
<defs>
<linearGradient id="paint0_linear_3934_2908" x1="3.45959" y1="3.23799" x2="21.3922" y2="20.8994" gradientUnits="userSpaceOnUse">
<stop stop-color="#387EB8"/>
<stop offset="1" stop-color="#366994"/>
</linearGradient>
<linearGradient id="paint1_linear_3934_2908" x1="14.4112" y1="14.6384" x2="33.6641" y2="32.7442" gradientUnits="userSpaceOnUse">
<stop stop-color="#FFE052"/>
<stop offset="1" stop-color="#FFC331"/>
</linearGradient>
</defs>
</svg>
