<svg viewBox="0 0 36 40" fill="none" xmlns="http://www.w3.org/2000/svg">
<path d="M17.9999 23.1346C19.7311 23.1346 21.1346 21.7311 21.1346 19.9999C21.1346 18.2687 19.7311 16.8652 17.9999 16.8652C16.2687 16.8652 14.8652 18.2687 14.8652 19.9999C14.8652 21.7311 16.2687 23.1346 17.9999 23.1346Z" fill="#61DAFB"/>
<path fill-rule="evenodd" clip-rule="evenodd" d="M3.2605 18.3493C2.54964 18.991 2.31598 19.5505 2.31598 19.9987C2.31598 20.4468 2.54964 21.0064 3.2605 21.6481C3.97087 22.2893 5.06294 22.9192 6.5094 23.4715C9.39433 24.573 13.4564 25.2781 17.9996 25.2781C22.5428 25.2781 26.6049 24.573 29.4898 23.4715C30.9363 22.9192 32.0283 22.2893 32.7387 21.6481C33.4496 21.0064 33.6832 20.4468 33.6832 19.9987C33.6832 19.5505 33.4496 18.991 32.7387 18.3493C32.0283 17.708 30.9363 17.0782 29.4898 16.5259C26.6049 15.4244 22.5428 14.7193 17.9996 14.7193C13.4564 14.7193 9.39433 15.4244 6.5094 16.5259C5.06294 17.0782 3.97087 17.708 3.2605 18.3493ZM5.70255 14.389C8.90531 13.1662 13.2533 12.4336 17.9996 12.4336C22.7459 12.4336 27.0939 13.1662 30.2967 14.389C31.894 14.999 33.2652 15.753 34.2571 16.6484C35.2486 17.5434 35.9562 18.6734 35.9562 19.9987C35.9562 21.324 35.2486 22.454 34.2571 23.349C33.2652 24.2444 31.894 24.9984 30.2967 25.6083C27.0939 26.8312 22.7459 27.5638 17.9996 27.5638C13.2533 27.5638 8.90531 26.8312 5.70255 25.6083C4.10517 24.9984 2.73399 24.2444 1.74208 23.349C0.750642 22.454 0.0429688 21.324 0.0429688 19.9987C0.0429688 18.6734 0.750642 17.5434 1.74208 16.6484C2.73399 15.753 4.10517 14.999 5.70255 14.389Z" fill="#61DAFB"/>
<path fill-rule="evenodd" clip-rule="evenodd" d="M12.0677 6.41255C11.1577 6.11816 10.5532 6.19407 10.1602 6.42094C9.76728 6.64781 9.3993 7.13336 9.19925 8.06864C8.99919 9.004 8.99977 10.2638 9.24455 11.7916C9.7328 14.8391 11.1526 18.708 13.4235 22.6413C15.6944 26.5746 18.335 29.7386 20.7301 31.6852C21.9309 32.6611 23.0216 33.2915 23.9317 33.5859C24.8417 33.8803 25.4462 33.8044 25.8391 33.5775C26.2321 33.3507 26.6 32.8651 26.8001 31.9298C27.0002 30.9945 26.9996 29.7347 26.7548 28.2068C26.2665 25.1594 24.8468 21.2905 22.5759 17.3572C20.305 13.4238 17.6643 10.2599 15.2692 8.31328C14.0685 7.33738 12.9778 6.70697 12.0677 6.41255ZM16.7021 6.54363C19.3638 8.70695 22.1733 12.1075 24.5471 16.2191C26.9209 20.3307 28.4612 24.464 29.0038 27.8508C29.2744 29.5401 29.307 31.1055 29.0274 32.4127C28.7478 33.72 28.1233 34.8944 26.9804 35.5543C25.8375 36.2141 24.5081 36.1677 23.2362 35.7563C21.9643 35.3448 20.6249 34.5339 19.2973 33.4549C16.6355 31.2915 13.8261 27.891 11.4522 23.7794C9.0784 19.6678 7.53819 15.5345 6.99557 12.1477C6.72492 10.4584 6.69236 8.893 6.97196 7.58578C7.25158 6.2785 7.87608 5.10407 9.01898 4.44422C10.1619 3.78437 11.4912 3.83074 12.7632 4.24223C14.035 4.65369 15.3744 5.46458 16.7021 6.54363Z" fill="#61DAFB"/>
<path fill-rule="evenodd" clip-rule="evenodd" d="M26.7996 8.06887C26.5996 7.13359 26.2316 6.64804 25.8387 6.42117C25.4457 6.1943 24.8412 6.11839 23.9312 6.41278C23.0211 6.7072 21.9304 7.33761 20.7296 8.31351C18.3346 10.2601 15.6939 13.4241 13.423 17.3574C11.1521 21.2907 9.73235 25.1596 9.2441 28.2071C8.99932 29.7349 8.99873 30.9947 9.1988 31.9301C9.39885 32.8654 9.76683 33.3509 10.1598 33.5778C10.5527 33.8046 11.1572 33.8806 12.0672 33.5862C12.9773 33.2917 14.068 32.6613 15.2688 31.6854C17.6639 29.7389 20.3045 26.5749 22.5754 22.6415C24.8463 18.7082 26.2661 14.8394 26.7543 11.7919C26.9991 10.264 26.9997 9.00423 26.7996 8.06887ZM29.0033 12.1479C28.4607 15.5347 26.9205 19.668 24.5466 23.7796C22.1728 27.8913 19.3634 31.2918 16.7016 33.4551C15.374 34.5341 14.0346 35.345 12.7627 35.7565C11.4908 36.168 10.1614 36.2143 9.01853 35.5545C7.87563 34.8946 7.25112 33.7202 6.9715 32.4129C6.6919 31.1057 6.72447 29.5403 6.99512 27.851C7.53774 24.4642 9.07795 20.3309 11.4518 16.2193C13.8256 12.1077 16.6351 8.70718 19.2968 6.54386C20.6245 5.46481 21.9638 4.65392 23.2357 4.24246C24.5077 3.83097 25.837 3.7846 26.9799 4.44445C28.1228 5.1043 28.7473 6.27873 29.0269 7.58601C29.3065 8.89323 29.274 10.4586 29.0033 12.1479Z" fill="#61DAFB"/>
</svg>
