<svg viewBox="0 0 54 32" fill="none" xmlns="http://www.w3.org/2000/svg">
<path d="M27.0001 0C19.8868 0 15.4413 3.55563 13.6628 10.6662C16.3305 7.11059 19.4426 5.77773 22.9989 6.66631C25.0282 7.1733 26.4784 8.64558 28.0841 10.2746C30.6992 12.9283 33.7258 15.9997 40.3374 15.9997C47.45 15.9997 51.8962 12.444 53.674 5.33278C51.007 8.88841 47.895 10.2219 44.338 9.33336C42.3094 8.82637 40.8591 7.35408 39.2534 5.72503C36.6384 3.07132 33.6111 0 27.0001 0ZM13.6628 15.9997C6.5502 15.9997 2.10399 19.5553 0.326172 26.6666C2.99323 23.1109 6.10525 21.7774 9.66222 22.6666C11.6909 23.1743 13.1411 24.6459 14.7468 26.2743C17.3619 28.928 20.3892 32 27.0001 32C34.1134 32 38.5589 28.4444 40.3374 21.3331C37.6697 24.8887 34.5577 26.2223 31.0014 25.333C28.9721 24.8267 27.5218 23.3537 25.9161 21.7254C23.3011 19.0716 20.2744 15.9997 13.6628 15.9997Z" fill="#06B6D4"/>
</svg>
