<svg viewBox="0 0 40 40" fill="none" xmlns="http://www.w3.org/2000/svg">
<g id="Frame" clip-path="url(#clip0_3979_3591)">
<g id="Group">
<path id="Vector" d="M18.0468 0.0860176C14.1249 0.515705 10.4374 2.03133 7.46086 4.42977C6.45305 5.24227 4.80461 6.93758 4.07805 7.90633C2.00773 10.672 0.68742 13.8282 0.18742 17.2266C0.0155453 18.3751 -0.0391422 20.5704 0.0702328 21.7188C0.398358 25.1016 1.47648 28.2266 3.2343 30.8907C6.46867 35.8048 11.414 38.9532 17.2265 39.8126C18.3749 39.9845 20.5702 40.0391 21.7187 39.9298C25.1015 39.6016 28.2265 38.5235 30.8905 36.7657C35.8046 33.5313 38.953 28.586 39.8124 22.7735C39.9843 21.6251 40.039 19.4298 39.9296 18.2813C39.5312 14.1876 38.0702 10.5626 35.5702 7.46102C34.7577 6.45321 33.0624 4.80477 32.0937 4.07821C29.328 2.00789 26.1952 0.703205 22.7734 0.18758C21.828 0.0469551 18.9687 -0.0155449 18.0468 0.0860176ZM25.1484 18.4298C27.8593 23.172 30.078 27.0626 30.078 27.0782C30.078 27.0938 25.6327 27.1095 20.1952 27.1095C14.7577 27.1095 10.3124 27.0938 10.3124 27.0704C10.3124 27.0079 20.1796 9.75789 20.203 9.78914C20.2109 9.79696 22.4452 13.6876 25.1484 18.4298Z" fill="white"/>
</g>
</g>
<defs>
<clipPath id="clip0_3979_3591">
<rect width="40" height="40" fill="white"/>
</clipPath>
</defs>
</svg>
