<svg viewBox="0 0 199 341" fill="none" xmlns="http://www.w3.org/2000/svg">
  <path d="M69.2174 340C100.867 340 126.116 312.951 125.937 280V217C123.265 224.988 116.278 231 107.671 231H0V230H107.671C117.211 230 124.774 222.559 125.937 213V194V191C125.784 181.467 131.956 172.436 140.357 170C131.956 167.55 125.771 159.533 125.937 150V133C124.774 123.428 117.211 116 107.671 116H0V115H107.671C116.278 115 123.265 121.012 125.937 129V61C126.116 28.049 100.867 1 69.2174 1H0V0H69.2174C101.391 0 127.09 27.5031 126.899 61V133C127.014 133.945 126.911 135.015 126.899 136V150C126.835 160.797 134.794 170 145.164 170H199V171H145.164C134.794 171 126.835 180.203 126.899 191V194V210C126.911 210.972 127.014 212.055 126.899 213V280C127.09 313.497 101.391 341 69.2174 341H0V340H69.2174Z" fill="#D6D3D1"/>
</svg>