<svg viewBox="0 0 20 20" fill="none" xmlns="http://www.w3.org/2000/svg">
<g id="linkedin">
<path id="Vector" d="M5.1657 3.84305C5.16546 4.30961 4.98099 4.75696 4.65285 5.08671C4.32471 5.41645 3.87979 5.60156 3.41596 5.60133C2.95213 5.6011 2.50739 5.41553 2.17958 5.08546C1.85177 4.75539 1.66774 4.30785 1.66797 3.84129C1.6682 3.37473 1.85268 2.92737 2.18082 2.59763C2.50896 2.26789 2.95388 2.08277 3.41771 2.08301C3.88153 2.08324 4.32627 2.2688 4.65408 2.59888C4.9819 2.92895 5.16593 3.37649 5.1657 3.84305ZM5.21816 6.90399H1.72043V17.9163H5.21816V6.90399ZM10.7446 6.90399H7.26433V17.9163H10.7096V12.1375C10.7096 8.91823 14.8806 8.61917 14.8806 12.1375V17.9163H18.3346V10.9413C18.3346 5.51425 12.1611 5.71656 10.7096 8.38169L10.7446 6.90399Z" fill="white"/>
</g>
</svg>
