<svg viewBox="0 0 24 24" fill="none" xmlns="http://www.w3.org/2000/svg">
  <g clip-path="url(#clip0_3618_11772)">
    <path d="M13.5762 11.9833L15.9158 14.6577L19.0623 16.6682L19.6096 12.0002L19.0623 7.4375L15.8556 9.20361L13.5762 11.9833Z" fill="#00832D"/>
    <path d="M0 16.2339V20.2117C0 21.12 0.737183 21.8573 1.64565 21.8573H5.62348L6.44718 18.8519L5.62348 16.2339L2.89442 15.4102L0 16.2339Z" fill="#0066DA"/>
    <path d="M5.62348 2.10938L0 7.73286L2.8946 8.55464L5.62348 7.73286L6.43221 5.15054L5.62348 2.10938Z" fill="#E94235"/>
    <path d="M0 16.2352H5.62348V7.73242H0V16.2352Z" fill="#2684FC"/>
    <path d="M22.6548 4.49058L19.0625 7.43774V16.6683L22.6697 19.6269C23.2097 20.0499 23.9996 19.6644 23.9996 18.978V5.12628C23.9996 4.43226 23.1909 4.04861 22.6548 4.49058Z" fill="#00AC47"/>
    <path d="M13.5766 11.9834V16.2338H5.62305V21.8573H17.4171C18.3256 21.8573 19.0628 21.1199 19.0628 20.2117V16.6683L13.5766 11.9834Z" fill="#00AC47"/>
    <path d="M17.4171 2.10938H5.62305V7.73286H13.5766V11.9833L19.0628 7.43746V3.75503C19.0628 2.84656 18.3256 2.10938 17.4171 2.10938Z" fill="#FFBA00"/>
  </g>
  <defs>
    <clipPath id="clip0_3618_11772">
      <rect width="24" height="24" fill="white"/>
    </clipPath>
  </defs>
</svg>