<svg  viewBox="0 0 49 48" fill="none" xmlns="http://www.w3.org/2000/svg">
<path d="M22.833 9.06602C19.6992 7.05876 16.0545 5.99451 12.333 6.00002C10.119 5.99776 7.9208 6.37314 5.83301 7.11002C5.54059 7.21341 5.28741 7.40489 5.10832 7.65812C4.92924 7.91135 4.83305 8.21387 4.83301 8.52402V37.024C4.83304 37.264 4.89064 37.5004 5.00097 37.7135C5.1113 37.9266 5.27114 38.1101 5.46707 38.2486C5.663 38.3871 5.8893 38.4766 6.12698 38.5096C6.36466 38.5426 6.60678 38.518 6.83301 38.438C8.59967 37.8149 10.4597 37.4977 12.333 37.5C16.323 37.5 19.979 38.914 22.833 41.272V9.06602ZM25.833 41.272C28.7858 38.8283 32.5001 37.494 36.333 37.5C38.265 37.5 40.113 37.832 41.833 38.44C42.0594 38.5201 42.3017 38.5446 42.5395 38.5115C42.7774 38.4785 43.0038 38.3888 43.1998 38.25C43.3957 38.1113 43.5555 37.9275 43.6657 37.7142C43.7759 37.5008 43.8333 37.2641 43.833 37.024V8.52402C43.833 8.21387 43.7368 7.91135 43.5577 7.65812C43.3786 7.40489 43.1254 7.21341 42.833 7.11002C40.7452 6.37314 38.547 5.99776 36.333 6.00002C32.6115 5.99451 28.9668 7.05876 25.833 9.06602V41.272Z" fill="#39B98D"/>
</svg>
