<svg width="56" height="56" viewBox="0 0 56 56" fill="none" xmlns="http://www.w3.org/2000/svg">
<path d="M6.88039 23.4624L3.36409 23.099C2.77251 23.0312 2.24352 23.4677 2.18252 24.0597C2.12152 24.6513 2.55166 25.1803 3.14323 25.2413L6.65848 25.6047C7.22882 25.668 7.77772 25.2517 7.84058 24.6445C7.9021 24.0529 7.47197 23.5234 6.88039 23.4624ZM13.4855 12.0763C13.9077 11.6578 13.9109 10.9758 13.4918 10.5535L10.963 8.00107C10.546 7.57934 9.86349 7.5746 9.4402 7.9937C9.01742 8.41175 9.01426 9.09377 9.43283 9.51654L11.9627 12.07C12.3806 12.4921 13.0631 12.4955 13.4855 12.0763ZM24.8169 6.7096C25.4042 6.616 25.8044 6.06386 25.7113 5.4765L25.156 1.98491C25.0624 1.39807 24.515 0.997909 23.9229 1.09045C23.3356 1.18404 22.9354 1.73618 23.0285 2.32355L23.5838 5.81514C23.6773 6.40091 24.2261 6.80174 24.8169 6.7096ZM37.2719 8.49378C37.799 8.76262 38.4499 8.55412 38.7201 8.02262L40.3371 4.84391C40.6063 4.31334 40.3949 3.6655 39.8648 3.39574C39.3353 3.12757 38.687 3.3379 38.4167 3.86795L36.8008 7.04561C36.531 7.57566 36.7419 8.22402 37.2719 8.49378ZM51.4528 14.8775C51.1841 14.3469 50.5352 14.134 50.0057 14.4021L46.8107 16.017C46.2796 16.2852 46.0666 16.933 46.3348 17.4636C46.6044 17.9983 47.256 18.2057 47.7814 17.9395L50.9774 16.3246C51.508 16.0564 51.721 15.4086 51.4528 14.8775ZM52.6365 23.099L49.1202 23.4624C48.5286 23.5234 48.0985 24.0529 48.16 24.6445C48.2228 25.2516 48.7717 25.668 49.3421 25.6047L52.8573 25.2413C53.4489 25.1803 53.879 24.6513 53.818 24.0597C53.757 23.4682 53.2265 23.0333 52.6365 23.099ZM29.3308 33.5453C29.4493 31.3591 30.1169 29.2161 31.2477 27.3207H24.7539C25.8846 29.2161 26.5415 31.3591 26.6708 33.5453L27.3062 43.4853H28.6954L29.3308 33.5453Z" fill="#39B98D"/>
<path d="M28.9537 9.68102C19.6922 9.15334 12.0029 16.5087 12.0029 25.641C12.0029 29.1626 13.1229 32.501 15.2337 35.301C17.1075 37.7672 18.5614 40.5241 19.5737 43.4857H25.1414L24.5275 33.6749C24.4091 31.7041 23.7845 29.7872 22.7183 28.1179C22.3306 27.5256 22.3091 26.7718 22.6429 26.1472C22.9768 25.5441 23.6122 25.1672 24.3014 25.1672H31.6998C32.3891 25.1672 33.0245 25.5441 33.3583 26.1472C33.6922 26.761 33.6706 27.5256 33.2829 28.1179C32.2168 29.7872 31.5922 31.7041 31.4737 33.6749L30.8599 43.4857H36.5675C37.6229 40.5133 39.1306 37.6164 41.0691 34.8811C43.2229 31.8226 44.246 28.0749 43.9444 24.3057C43.2983 16.4226 36.8475 10.1333 28.9537 9.68102ZM21.2322 52.4133C21.2968 53.8241 22.4383 54.9226 23.8168 54.9226H32.1737C33.563 54.9226 34.6937 53.8457 34.7583 52.4779C34.8678 50.1882 35.245 47.8985 35.8767 45.6438H20.2217C20.7897 47.8194 21.1338 50.085 21.2322 52.4133Z" fill="#39B98D"/>
</svg>
