<svg viewBox="0 0 48 48" fill="none" xmlns="http://www.w3.org/2000/svg">
<path fill-rule="evenodd" clip-rule="evenodd" d="M24.5 2C12.0912 2 2 12.0912 2 24.5C2 36.9116 12.0912 47 24.5 47C36.9087 47 47 36.9116 47 24.5C47 12.0912 36.9087 2 24.5 2ZM13.2461 27.3125C13.2456 29.2877 13.7653 31.2282 14.7527 32.9389C15.7401 34.6496 17.1605 36.0701 18.8711 37.0577C20.5813 38.0451 22.5213 38.5649 24.4961 38.5649C26.4709 38.5649 28.4109 38.0451 30.1211 37.0577C31.8313 36.0703 33.2514 34.6504 34.2388 32.9402C35.2262 31.2301 35.746 29.29 35.7461 27.3152L13.2461 27.3125ZM10.8355 19.8752C11.0949 20.1419 11.4494 20.295 11.8214 20.3009C12.0091 20.3039 12.1955 20.2668 12.3697 20.1966C12.5438 20.1264 12.7022 20.0217 12.8353 19.8893C12.9685 19.7569 13.0738 19.5992 13.145 19.4255C13.2163 19.2517 13.252 19.0656 13.2501 18.8779C13.2501 18.1319 13.5464 17.4164 14.0739 16.889C14.6013 16.3615 15.3167 16.0654 16.0626 16.0654C16.8085 16.0654 17.5239 16.3615 18.0513 16.889C18.5788 17.4164 18.8751 18.1319 18.8751 18.8779C18.8751 19.2508 19.0233 19.6084 19.287 19.8721C19.5507 20.1358 19.9084 20.2841 20.2814 20.2841C20.6543 20.2841 21.012 20.1358 21.2757 19.8721C21.5394 19.6084 21.6876 19.2508 21.6876 18.8779C21.6228 17.4295 21.0019 16.0621 19.9541 15.0601C18.9063 14.0581 17.5124 13.499 16.0626 13.499C14.6128 13.499 13.2189 14.0581 12.1711 15.0601C11.1233 16.0621 10.5024 17.4295 10.4376 18.8779C10.4331 19.2499 10.5762 19.6085 10.8355 19.8752ZM27.7105 19.8752C27.9699 20.1419 28.3244 20.295 28.6964 20.3009C28.8841 20.3039 29.0705 20.2668 29.2447 20.1966C29.4188 20.1264 29.5772 20.0217 29.7103 19.8893C29.8435 19.7569 29.9488 19.5992 30.02 19.4255C30.0913 19.2517 30.127 19.0656 30.1251 18.8779C30.1251 18.1319 30.4214 17.4164 30.9489 16.889C31.4763 16.3615 32.1917 16.0654 32.9376 16.0654C33.6835 16.0654 34.3989 16.3615 34.9263 16.889C35.4538 17.4164 35.7501 18.1319 35.7501 18.8779C35.7501 19.2508 35.8983 19.6084 36.162 19.8721C36.4257 20.1358 36.7834 20.2841 37.1564 20.2841C37.5293 20.2841 37.887 20.1358 38.1507 19.8721C38.4144 19.6084 38.5626 19.2508 38.5626 18.8779C38.4978 17.4295 37.8769 16.0621 36.8291 15.0601C35.7813 14.0581 34.3874 13.499 32.9376 13.499C31.4878 13.499 30.0939 14.0581 29.0461 15.0601C27.9983 16.0621 27.3774 17.4295 27.3126 18.8779C27.3081 19.2499 27.4512 19.6085 27.7105 19.8752Z" fill="#39B98D"/>
</svg>
