<svg  viewBox="0 0 49 48" fill="none" xmlns="http://www.w3.org/2000/svg">
<g clip-path="url(#clip0_3973_2764)">
<path d="M16.9333 36.432L23.5333 20.408V34.544L18.0453 37.448C17.7493 37.6 17.3813 37.56 17.1333 37.328C16.8853 37.104 16.8053 36.744 16.9333 36.432ZM31.7253 36.432C31.8533 36.744 31.7733 37.104 31.5253 37.328C31.3733 37.472 31.1813 37.536 30.9893 37.536C30.8613 37.536 30.7333 37.512 30.6133 37.448L25.1333 34.544V20.376L31.7253 36.432Z" fill="currentColor"/>
<path d="M37.957 14.7281H31.493C35.293 16.7841 38.109 20.4161 39.061 24.7601H41.085C41.533 24.7601 41.885 25.1201 41.885 25.5601V30.4721C41.885 30.9201 41.533 31.2721 41.085 31.2721H36.173C35.733 31.2721 35.373 30.9201 35.373 30.4721V25.5601C35.373 25.1201 35.733 24.7601 36.173 24.7601H37.429C36.229 19.9201 32.429 16.1121 27.589 14.9201V16.1761C27.589 16.6161 27.229 16.9761 26.789 16.9761H21.869C21.429 16.9761 21.069 16.6161 21.069 16.1761V14.9201C16.229 16.1121 12.429 19.9201 11.229 24.7601H12.485C12.933 24.7601 13.285 25.1201 13.285 25.5601V30.4721C13.285 30.9201 12.933 31.2721 12.485 31.2721H7.57301C7.13301 31.2721 6.77301 30.9201 6.77301 30.4721V25.5601C6.77301 25.1201 7.13301 24.7601 7.57301 24.7601H9.59701C10.549 20.4161 13.365 16.7841 17.165 14.7281H10.701C10.341 16.1281 9.08501 17.1681 7.57301 17.1681C5.78101 17.1681 4.33301 15.7121 4.33301 13.9281C4.33301 12.1361 5.78101 10.6881 7.57301 10.6881C9.08501 10.6881 10.341 11.7281 10.701 13.1281H21.069V11.2561C21.069 10.8161 21.429 10.4561 21.869 10.4561H26.789C27.229 10.4561 27.589 10.8161 27.589 11.2561V13.1281H37.957C38.317 11.7281 39.581 10.6881 41.085 10.6881C42.877 10.6881 44.333 12.1361 44.333 13.9281C44.333 15.7121 42.877 17.1681 41.085 17.1681C39.581 17.1681 38.317 16.1281 37.957 14.7281Z" fill="currentColor"/>
</g>
<defs>
<clipPath id="clip0_3973_2764">
<rect width="48" height="48" fill="currentColor" transform="translate(0.333008)"/>
</clipPath>
</defs>
</svg>
