<svg viewBox="0 0 47 47" fill="none" xmlns="http://www.w3.org/2000/svg">
<path d="M20.3275 32.3125L31.7838 24.9688C32.3321 24.6162 32.6063 24.1267 32.6063 23.5C32.6063 22.8733 32.3321 22.3837 31.7838 22.0312L20.3275 14.6875C19.74 14.2958 19.1427 14.2665 18.5356 14.5994C17.9285 14.9323 17.625 15.4513 17.625 16.1562V30.8438C17.625 31.5487 17.9285 32.0677 18.5356 32.4006C19.1427 32.7335 19.74 32.7042 20.3275 32.3125ZM23.5 47C20.2492 47 17.1942 46.3831 14.335 45.1494C11.4758 43.9156 8.98875 42.2412 6.87375 40.1263C4.75875 38.0112 3.08437 35.5242 1.85063 32.665C0.616875 29.8058 0 26.7508 0 23.5C0 20.2492 0.616875 17.1942 1.85063 14.335C3.08437 11.4758 4.75875 8.98875 6.87375 6.87375C8.98875 4.75875 11.4758 3.08437 14.335 1.85063C17.1942 0.616875 20.2492 0 23.5 0C26.7508 0 29.8058 0.616875 32.665 1.85063C35.5242 3.08437 38.0112 4.75875 40.1263 6.87375C42.2412 8.98875 43.9156 11.4758 45.1494 14.335C46.3831 17.1942 47 20.2492 47 23.5C47 26.7508 46.3831 29.8058 45.1494 32.665C43.9156 35.5242 42.2412 38.0112 40.1263 40.1263C38.0112 42.2412 35.5242 43.9156 32.665 45.1494C29.8058 46.3831 26.7508 47 23.5 47Z" fill="currentColor"/>
</svg>
