<svg viewBox="0 0 56 56" fill="none" xmlns="http://www.w3.org/2000/svg">
  <rect x="13" y="18" width="32" height="25" fill="white"/>
  <path d="M25.3275 37.3125L36.7838 29.9688C37.3321 29.6162 37.6063 29.1267 37.6063 28.5C37.6063 27.8733 37.3321 27.3837 36.7838 27.0312L25.3275 19.6875C24.74 19.2958 24.1427 19.2665 23.5356 19.5994C22.9285 19.9323 22.625 20.4513 22.625 21.1562V35.8438C22.625 36.5487 22.9285 37.0677 23.5356 37.4006C24.1427 37.7335 24.74 37.7042 25.3275 37.3125ZM28.5 52C25.2492 52 22.1942 51.3831 19.335 50.1494C16.4758 48.9156 13.9887 47.2412 11.8738 45.1263C9.75875 43.0112 8.08437 40.5242 6.85063 37.665C5.61687 34.8058 5 31.7508 5 28.5C5 25.2492 5.61687 22.1942 6.85063 19.335C8.08437 16.4758 9.75875 13.9887 11.8738 11.8738C13.9887 9.75875 16.4758 8.08437 19.335 6.85063C22.1942 5.61687 25.2492 5 28.5 5C31.7508 5 34.8058 5.61687 37.665 6.85063C40.5242 8.08437 43.0112 9.75875 45.1263 11.8738C47.2412 13.9887 48.9156 16.4758 50.1494 19.335C51.3831 22.1942 52 25.2492 52 28.5C52 31.7508 51.3831 34.8058 50.1494 37.665C48.9156 40.5242 47.2412 43.0112 45.1263 45.1263C43.0112 47.2412 40.5242 48.9156 37.665 50.1494C34.8058 51.3831 31.7508 52 28.5 52Z" fill="currentColor"/>
</svg>