<svg viewBox="0 0 49 48" fill="none" xmlns="http://www.w3.org/2000/svg">
<g clip-path="url(#clip0_4077_3379)">
<path d="M47.6449 22.8385L41.2834 16.4769V10.3997C41.2834 9.77643 41.0358 9.17868 40.595 8.73796C40.1543 8.29724 39.5566 8.04965 38.9333 8.04965H32.8561L26.4945 1.68806C26.0538 1.2475 25.4562 1 24.833 1C24.2099 1 23.6122 1.2475 23.1715 1.68806L16.8099 8.04965H10.7327C10.1094 8.04965 9.51169 8.29724 9.07097 8.73796C8.63025 9.17868 8.38266 9.77643 8.38266 10.3997V16.4769L2.02107 22.8385C1.5805 23.2792 1.33301 23.8769 1.33301 24.5C1.33301 25.1231 1.5805 25.7208 2.02107 26.1615L8.38266 32.5231V38.6003C8.38266 39.2236 8.63025 39.8213 9.07097 40.262C9.51169 40.7028 10.1094 40.9504 10.7327 40.9504H16.8099L23.1715 47.3119C23.6122 47.7525 24.2099 48 24.833 48C25.4562 48 26.0538 47.7525 26.4945 47.3119L32.8561 40.9504H38.9333C39.5566 40.9504 40.1543 40.7028 40.595 40.262C41.0358 39.8213 41.2834 39.2236 41.2834 38.6003V32.5231L47.6449 26.1615C48.0855 25.7208 48.333 25.1231 48.333 24.5C48.333 23.8769 48.0855 23.2792 47.6449 22.8385ZM34.7197 20.2864L22.9694 32.0366C22.5287 32.4772 21.9311 32.7247 21.3079 32.7247C20.6848 32.7247 20.0871 32.4772 19.6464 32.0366L14.9463 27.3365C14.7219 27.1197 14.5429 26.8604 14.4197 26.5737C14.2965 26.287 14.2317 25.9786 14.229 25.6666C14.2263 25.3545 14.2857 25.0451 14.4039 24.7563C14.5221 24.4675 14.6966 24.2051 14.9172 23.9844C15.1379 23.7638 15.4003 23.5893 15.6891 23.4711C15.9779 23.3529 16.2873 23.2935 16.5994 23.2962C16.9114 23.2989 17.2198 23.3637 17.5065 23.4869C17.7932 23.6101 18.0525 23.7891 18.2693 24.0135L21.3079 27.0522L31.3967 16.9634C31.8399 16.5353 32.4335 16.2984 33.0497 16.3038C33.6659 16.3091 34.2553 16.5563 34.691 16.992C35.1268 17.4277 35.3739 18.0172 35.3793 18.6333C35.3846 19.2495 35.1478 19.8431 34.7197 20.2864Z" fill="#39B98D"/>
</g>
<defs>
<clipPath id="clip0_4077_3379">
<rect width="48" height="48" fill="white" transform="translate(0.333008)"/>
</clipPath>
</defs>
</svg>
