<svg width="56" height="56" viewBox="0 0 56 56" fill="none" xmlns="http://www.w3.org/2000/svg">
<g clip-path="url(#clip0_4146_15294)">
<path d="M37.9748 8.86371C40.6523 8.37453 43.4622 7.91444 46.1483 8.57314C46.8089 11.2108 46.3664 13.9802 45.8896 16.6139C44.5821 23.0023 41.5133 29.1773 36.5547 33.5093C36.6875 35.0184 36.8715 36.5238 36.978 38.0348C37.0719 40.2628 35.9495 42.4694 34.1225 43.7373C31.7783 45.3026 29.4448 46.8874 27.0831 48.4246C25.851 49.1984 24.035 48.3007 23.878 46.8621C23.6591 44.4327 23.5138 41.9956 23.2967 39.5652C21.3314 39.5275 19.3582 38.8397 17.884 37.5203C16.1626 36.0257 15.2375 33.7669 15.1611 31.5117C13.4843 31.2891 11.731 31.2813 10.0243 31.1321C9.21541 31.044 8.36885 31.1447 7.59197 30.86C6.41602 30.3902 5.88322 28.8035 6.58176 27.733C8.06382 25.4034 9.52353 23.0583 11.0211 20.7384C12.3016 18.7895 14.6515 17.6233 16.9782 17.7849C18.3035 17.9002 19.6266 18.0378 20.9488 18.183C21.2607 18.2799 21.4059 17.9292 21.5997 17.7587C25.8629 13.0581 31.8239 10.1589 37.9748 8.86371ZM33.3709 16.0667C31.173 16.3429 29.3733 18.3751 29.3829 20.5942C29.2627 23.074 31.4501 25.3562 33.9317 25.3426C35.7546 25.4249 37.5379 24.2858 38.284 22.6304C39.0249 21.0562 38.7779 19.0725 37.6591 17.7378C36.6566 16.4745 34.9624 15.8227 33.3709 16.0667Z" fill="#39B98D"/>
<path d="M10.7855 35.1352C11.331 34.5568 12.4168 34.8698 12.5921 35.6399C13.5627 38.6708 16.0502 41.1574 19.0812 42.1278C19.8222 42.3051 20.1642 43.3242 19.6343 43.8879C18.4475 45.0882 17.2542 46.2843 16.054 47.472C15.4806 48.0638 14.3395 47.6657 14.2515 46.849C14.2108 46.201 14.2417 45.5491 14.2291 44.8992C12.6841 45.3961 11.1537 45.9385 9.60674 46.4287C8.86768 46.6603 8.07146 45.8707 8.29335 45.1316C8.78252 43.5798 9.33458 42.0466 9.81981 40.4928C9.17185 40.4879 8.52081 40.516 7.87378 40.4753C7.05723 40.391 6.66775 39.2442 7.2529 38.6716C8.42112 37.4842 9.60573 36.3121 10.7855 35.1352Z" fill="#39B98D"/>
<path d="M32.4139 22.2426C33.195 23.0237 34.4613 23.0237 35.2423 22.2426C36.0234 21.4616 36.0234 20.1953 35.2423 19.4142C34.4613 18.6332 33.195 18.6332 32.4139 19.4142C31.6329 20.1953 31.6329 21.4616 32.4139 22.2426Z" fill="#39B98D"/>
</g>
<defs>
<clipPath id="clip0_4146_15294">
<rect width="56" height="56" fill="white"/>
</clipPath>
</defs>
</svg>
