<svg viewBox="0 0 24 25" fill="none" xmlns="http://www.w3.org/2000/svg">
<g id="Frame">
<path id="Vector" d="M15.59 14.5126C15.7982 15.3937 15.8044 16.3104 15.608 17.1942C15.4116 18.078 15.0177 18.9059 14.4559 19.6158C13.8941 20.3258 13.1789 20.8994 12.364 21.2937C11.549 21.688 10.6553 21.8927 9.75 21.8926V17.0926M15.59 14.5126C17.4999 13.1214 19.0536 11.2981 20.1242 9.19166C21.1947 7.08525 21.7519 4.75545 21.75 2.39258C19.3873 2.39088 17.0577 2.94807 14.9515 4.01865C12.8452 5.08923 11.0221 6.64284 9.631 8.55258M15.59 14.5126C13.8519 15.7839 11.8603 16.664 9.75 17.0926M9.75 17.0926C9.647 17.1136 9.543 17.1336 9.439 17.1526C8.53179 16.4332 7.71038 15.6118 6.991 14.7046C7.00989 14.6004 7.02889 14.4964 7.05 14.3926M9.631 8.55258C8.74986 8.34418 7.83298 8.3379 6.94907 8.53422C6.06516 8.73054 5.23714 9.12437 4.52707 9.68619C3.817 10.248 3.2433 10.9633 2.84895 11.7783C2.4546 12.5934 2.24984 13.4871 2.25 14.3926H7.05M9.631 8.55258C8.35988 10.2904 7.47875 12.2826 7.05 14.3926M4.811 16.7826C4.15318 17.2717 3.64173 17.9316 3.33202 18.6906C3.02232 19.4496 2.92618 20.2788 3.054 21.0886C3.86383 21.2163 4.69316 21.12 5.45218 20.8101C6.21119 20.5002 6.87095 19.9886 7.36 19.3306M16.5 9.14258C16.5 9.54041 16.342 9.92194 16.0607 10.2032C15.7794 10.4845 15.3978 10.6426 15 10.6426C14.6022 10.6426 14.2206 10.4845 13.9393 10.2032C13.658 9.92194 13.5 9.54041 13.5 9.14258C13.5 8.74476 13.658 8.36323 13.9393 8.08192C14.2206 7.80062 14.6022 7.64258 15 7.64258C15.3978 7.64258 15.7794 7.80062 16.0607 8.08192C16.342 8.36323 16.5 8.74476 16.5 9.14258Z" stroke="black" stroke-width="1.5" stroke-linecap="round" stroke-linejoin="round"/>
</g>
</svg>
