<svg viewBox="0 0 48 48" fill="none" xmlns="http://www.w3.org/2000/svg">
<path fill-rule="evenodd" clip-rule="evenodd" d="M21 8.4095L18 9.0095C18 7.0325 18.417 5.0765 19.2225 3.2705L19.2795 3.143C19.2985 3.10042 19.3295 3.06426 19.3686 3.03888C19.4077 3.0135 19.4534 3 19.5 3C19.5466 3 19.5923 3.0135 19.6314 3.03888C19.6705 3.06426 19.7015 3.10042 19.7205 3.143L20.0205 3.818C20.6655 5.2625 21 6.827 21 8.4095ZM15 21.0095C15 17.4095 10.9995 13.5095 9 12.0095L30 9.0095L30.078 9.035C31.611 9.545 34.821 10.61 36 16.5095C36.9 21.0095 34.5 26.51 33 27.0095L9 31.5095C10.9995 30.0095 15 25.5095 15 21.0095ZM4.254 35.7995C3.90349 35.8578 3.58505 36.0386 3.3554 36.3097C3.12576 36.5808 2.99981 36.9247 3 37.28V39.0095C3 40.6008 3.63214 42.1269 4.75736 43.2521C5.88258 44.3774 7.4087 45.0095 9 45.0095H27C36.9405 45.0095 45 36.9515 45 27.0095V24.0095L43.5 21.0095C43.8978 21.0095 44.2794 20.8515 44.5607 20.5702C44.842 20.2889 45 19.9073 45 19.5095C45 19.1117 44.842 18.7301 44.5607 18.4488C44.2794 18.1675 43.8978 18.0095 43.5 18.0095H43.3155C42.543 18.0095 41.868 18.5345 41.6805 19.2845L40.908 22.3775C40.3408 24.6452 39.1236 26.6979 37.4059 28.2834C35.6882 29.869 33.5448 30.9183 31.239 31.3025L4.254 35.801V35.7995Z" fill="#39B98D"/>
</svg>
