<svg viewBox="0 0 18 18" fill="none" xmlns="http://www.w3.org/2000/svg">
  <path d="M4.44459 11.081C4.44459 11.9964 3.70533 12.7363 2.79066 12.7363C1.87598 12.7363 1.13672 11.9964 1.13672 11.081C1.13672 10.1656 1.87598 9.42578 2.79066 9.42578H4.44459V11.081ZM5.27157 11.081C5.27157 10.1656 6.01083 9.42578 6.9255 9.42578C7.84018 9.42578 8.57944 10.1656 8.57944 11.081V15.2192C8.57944 16.1346 7.84018 16.8744 6.9255 16.8744C6.01083 16.8744 5.27157 16.1346 5.27157 15.2192V11.081Z" fill="currentColor"/>
  <path d="M11.0739 13.564C11.9886 13.564 12.7278 14.3038 12.7278 15.2192C12.7278 16.1346 11.9886 16.8744 11.0739 16.8744C10.1592 16.8744 9.41992 16.1346 9.41992 15.2192V13.564H11.0739ZM11.0739 12.7363C10.1592 12.7363 9.41992 11.9964 9.41992 11.081C9.41992 10.1656 10.1592 9.42578 11.0739 9.42578H15.2212C16.1359 9.42578 16.8752 10.1656 16.8752 11.081C16.8752 11.9964 16.1359 12.7363 15.2212 12.7363H11.0739Z" fill="currentColor"/>
  <path d="M13.5548 6.93093C13.5548 6.01552 14.294 5.27568 15.2088 5.27568C16.1234 5.27568 16.8626 6.01552 16.8626 6.93093C16.8626 7.84633 16.1234 8.58619 15.2088 8.58619H13.5548V6.93093ZM12.7278 6.93093C12.7278 7.84633 11.9886 8.58619 11.0739 8.58619C10.1592 8.58619 9.41992 7.84633 9.41992 6.93093V2.78026C9.41992 1.86484 10.1592 1.125 11.0739 1.125C11.9886 1.125 12.7278 1.86484 12.7278 2.78026V6.93093Z" fill="currentColor"/>
  <path d="M6.92631 4.43551C6.01164 4.43551 5.27237 3.69566 5.27237 2.78026C5.27237 1.86484 6.01164 1.125 6.92631 1.125C7.84099 1.125 8.58025 1.86484 8.58025 2.78026V4.43551H6.92631ZM6.92631 5.27568C7.84099 5.27568 8.58025 6.01552 8.58025 6.93093C8.58025 7.84633 7.84099 8.58619 6.92631 8.58619H2.77894C1.86426 8.58619 1.125 7.84633 1.125 6.93093C1.125 6.01552 1.86426 5.27568 2.77894 5.27568H6.92631Z" fill="currentColor"/>
</svg>