<svg  viewBox="0 0 24 25" fill="none" xmlns="http://www.w3.org/2000/svg">
<g id="Frame">
<path id="Vector" fill-rule="evenodd" clip-rule="evenodd" d="M7.5 5.39258C7.5 4.59693 7.81607 3.83387 8.37868 3.27126C8.94129 2.70865 9.70435 2.39258 10.5 2.39258H13.5C14.2956 2.39258 15.0587 2.70865 15.6213 3.27126C16.1839 3.83387 16.5 4.59693 16.5 5.39258V5.59758C17.433 5.68258 18.357 5.79458 19.274 5.93158C20.728 6.14958 21.75 7.41458 21.75 8.84858V11.8816C21.75 13.0926 21.016 14.2336 19.814 14.6336C17.2938 15.4701 14.6554 15.8952 12 15.8926C9.27 15.8926 6.643 15.4506 4.186 14.6336C2.984 14.2336 2.25 13.0926 2.25 11.8816V8.84858C2.25 7.41458 3.272 6.14858 4.726 5.93158C5.64729 5.7938 6.57234 5.68242 7.5 5.59758V5.39258ZM15 5.39258V5.48258C13.0018 5.36123 10.9982 5.36123 9 5.48258V5.39258C9 4.99475 9.15804 4.61322 9.43934 4.33192C9.72064 4.05061 10.1022 3.89258 10.5 3.89258H13.5C13.8978 3.89258 14.2794 4.05061 14.5607 4.33192C14.842 4.61322 15 4.99475 15 5.39258ZM12 13.6426C12.1989 13.6426 12.3897 13.5636 12.5303 13.4229C12.671 13.2823 12.75 13.0915 12.75 12.8926C12.75 12.6937 12.671 12.5029 12.5303 12.3622C12.3897 12.2216 12.1989 12.1426 12 12.1426C11.8011 12.1426 11.6103 12.2216 11.4697 12.3622C11.329 12.5029 11.25 12.6937 11.25 12.8926C11.25 13.0915 11.329 13.2823 11.4697 13.4229C11.6103 13.5636 11.8011 13.6426 12 13.6426Z" fill="white"/>
<path id="Vector_2" d="M3 18.5421V15.7461C3.22782 15.8707 3.46646 15.9745 3.713 16.0561C6.38569 16.9435 9.18385 17.3946 12 17.3921C14.892 17.3921 17.68 16.9241 20.287 16.0571C20.539 15.9731 20.777 15.8681 21 15.7461V18.5421C21 19.9941 19.953 21.2701 18.477 21.4651C16.357 21.7471 14.195 21.8921 12 21.8921C9.83395 21.8925 7.67024 21.7499 5.523 21.4651C4.047 21.2701 3 19.9941 3 18.5421Z" fill="white"/>
</g>
</svg>
