<svg width="49" height="48" viewBox="0 0 49 48" fill="none" xmlns="http://www.w3.org/2000/svg">
<g clip-path="url(#clip0_4077_3369)">
<path d="M24.333 9.19922C21.333 9.19922 18.833 11.5992 18.833 14.6992C18.833 17.6992 21.233 21.7992 24.333 21.7992C27.433 21.7992 29.833 17.6992 29.833 14.6992C29.833 11.5992 27.333 9.19922 24.333 9.19922Z" fill="#39B98D"/>
<path d="M10.3323 12.8008C7.93228 12.8008 5.93228 14.8008 5.93228 17.2008C5.93228 19.6008 7.93228 23.0008 10.3323 23.0008C12.7323 23.0008 14.7323 19.7008 14.7323 17.2008C14.7323 14.8008 12.7323 12.8008 10.3323 12.8008ZM38.3323 12.8008C35.9323 12.8008 33.9323 14.8008 33.9323 17.2008C33.9323 19.6008 35.9323 23.0008 38.3323 23.0008C40.7323 23.0008 42.7323 19.7008 42.7323 17.2008C42.7323 14.8008 40.8323 12.8008 38.3323 12.8008ZM10.6323 30.4008C10.5323 28.5008 10.9323 26.7008 11.7323 25.1008L10.3323 26.2008L6.43228 23.4008C6.13228 23.4008 4.93228 23.5008 4.53228 23.7008C3.83228 24.0008 3.33228 24.4008 2.83228 24.9008C1.53228 26.2008 0.832276 28.1008 0.932276 30.0008L1.13228 34.0008C1.23228 35.5008 2.53228 36.7008 4.03228 36.7008H11.2323C11.1323 36.4008 11.0323 36.0008 11.0323 35.6008L10.6323 30.4008ZM45.9323 24.8008C45.4323 24.3008 44.8323 23.9008 44.2323 23.6008C43.8323 23.4008 42.6323 23.3008 42.3323 23.3008L38.3323 26.2008L36.9323 25.2008C37.7323 26.8008 38.1323 28.6008 38.0323 30.5008L37.6323 35.7008C37.6323 36.1008 37.5323 36.4008 37.4323 36.8008H44.6323C46.1323 36.8008 47.4323 35.6008 47.5323 34.1008L47.8323 29.9008C47.9323 27.9008 47.2323 26.1008 45.9323 24.8008Z" fill="#39B98D"/>
<path d="M36.0335 30.2992C36.2335 27.8992 35.3335 25.5992 33.6335 23.9992C33.0335 23.3992 32.3335 22.8992 31.4335 22.4992C30.9335 22.2992 29.4335 22.1992 29.0335 22.1992L24.3335 25.6992L19.5335 22.1992C19.1335 22.1992 17.6335 22.2992 17.1335 22.4992C16.3335 22.8992 15.6335 23.3992 15.0335 23.9992C13.4335 25.5992 12.5335 27.8992 12.6335 30.2992L13.0335 35.4992C13.1335 37.3992 14.7335 38.7992 16.6335 38.7992H32.1335C34.0335 38.7992 35.5335 37.2992 35.7335 35.4992L36.0335 30.2992Z" fill="#39B98D"/>
</g>
<defs>
<clipPath id="clip0_4077_3369">
<rect width="48" height="48" fill="white" transform="translate(0.333008)"/>
</clipPath>
</defs>
</svg>
