<svg  viewBox="0 0 49 48" fill="none" xmlns="http://www.w3.org/2000/svg">
<g clip-path="url(#clip0_3794_19600)">
<g clip-path="url(#clip1_3794_19600)">
<path d="M31.0418 9.6C29.4668 8.85 27.5918 8.325 26.4668 6.9C25.6418 5.85 25.2668 4.5 24.6668 3.3C24.5918 3.15 24.3668 3.15 24.2918 3.3C23.6918 4.575 23.1668 5.775 22.5668 6.9C22.3418 7.275 21.9668 7.65 21.5918 7.875C20.4668 8.475 19.2668 9 17.9918 9.6C17.8418 9.675 17.8418 9.9 17.9918 9.975C19.0418 10.5 19.9418 10.95 20.9168 11.325C21.9668 11.7 22.5668 12.3 22.9418 13.35C23.3168 14.325 23.7668 15.225 24.2918 16.275C24.3668 16.425 24.5918 16.425 24.6668 16.275C25.1918 15.225 25.6418 14.25 26.0168 13.275C26.3918 12.3 26.9918 11.7 28.0418 11.325C29.0168 10.95 29.9168 10.5 30.9668 9.975C31.1918 9.9 31.1918 9.675 31.0418 9.6ZM42.0668 16.275C41.0168 15.825 39.8168 15.45 39.0668 14.475C38.5418 13.8 38.2418 12.9 37.8668 12.075C37.7918 12 37.7168 12 37.6418 12.075C37.2668 12.975 36.8918 13.725 36.5168 14.475C36.3668 14.775 36.1418 15 35.8418 15.15C35.0918 15.525 34.3418 15.9 33.4418 16.275C33.3668 16.35 33.3668 16.425 33.4418 16.5C34.1918 16.875 34.7918 17.175 35.3918 17.4C36.0668 17.625 36.5168 18.075 36.7418 18.75C36.9668 19.425 37.2668 20.025 37.6418 20.7C37.7168 20.775 37.7918 20.775 37.8668 20.7C38.2418 19.95 38.5418 19.35 38.7668 18.675C38.9918 18 39.4418 17.625 40.1168 17.325C40.7918 17.1 41.3918 16.8 42.0668 16.425C42.2168 16.425 42.2168 16.275 42.0668 16.275ZM15.7418 16.275C14.6918 15.825 13.4918 15.45 12.7418 14.475C12.2168 13.8 11.9168 12.9 11.5418 12.075C11.4668 12 11.3918 12 11.3168 12.075C10.9418 12.975 10.5668 13.725 10.1918 14.475C10.0418 14.775 9.8168 15 9.5168 15.15C8.7668 15.525 8.0168 15.9 7.1168 16.275C7.0418 16.35 7.0418 16.425 7.1168 16.5C7.8668 16.875 8.4668 17.175 9.0668 17.4C9.7418 17.625 10.1918 18.075 10.4168 18.75C10.6418 19.425 10.9418 20.025 11.3168 20.7C11.3918 20.775 11.4668 20.775 11.5418 20.7C11.9168 19.95 12.2168 19.35 12.4418 18.675C12.6668 18 13.1168 17.625 13.7918 17.325C14.4668 17.1 15.0668 16.8 15.7418 16.425C15.8918 16.425 15.8918 16.275 15.7418 16.275ZM33.5168 37.725C33.5168 37.725 28.3418 35.925 28.1918 35.925C28.1918 36 28.1918 36.075 28.1168 36.15C27.8918 37.125 27.5918 38.025 27.3668 39C26.9918 40.125 26.6168 41.175 26.2418 42.3V42.375C26.1668 42.525 26.1668 42.6 26.0918 42.75C26.0168 42.225 25.9418 41.625 25.8668 40.95C25.7918 40.275 25.7168 39.525 25.6418 39.075C25.6418 39 25.5668 39 25.5668 39H23.9168C23.8418 39 23.8418 39.075 23.8418 39.075C23.7668 39.525 23.6918 40.2 23.6168 40.95C23.5418 41.625 23.4668 42.225 23.3918 42.75C23.3168 42.6 23.2418 42.525 23.2418 42.375V42.3C22.8668 41.175 22.4918 40.125 22.1168 39C21.8168 38.1 21.5918 37.125 21.3668 36.15C21.3668 36.075 21.3668 36 21.2918 35.925C21.1418 35.925 15.9668 37.725 15.9668 37.725C13.7168 38.475 13.7918 39.975 13.7918 39.975V42.975C14.0168 44.775 15.4418 44.775 15.4418 44.775H34.3418C34.3418 44.775 35.7668 44.775 35.9918 42.975V39.975C35.6918 39.975 35.7668 38.475 33.5168 37.725Z" fill="currentColor"/>
<path d="M26.0918 37.1252L25.8668 36.6752C25.7918 36.6002 25.7168 36.5252 25.6418 36.5252H23.6918C23.6168 36.5252 23.4668 36.6002 23.4668 36.6752L23.1668 37.1252C23.0918 37.2002 23.0918 37.2752 23.1668 37.3502L23.6168 38.2502H25.7168L26.1668 37.3502C26.0918 37.2752 26.0918 37.2002 26.0918 37.1252ZM30.0668 28.1252C30.0668 27.6752 29.8418 27.1502 29.3918 27.0002V26.9252V26.7752C29.3918 26.6252 29.3918 26.4752 29.4668 26.3252L29.6918 24.9752C29.7668 23.4752 28.9418 22.2752 27.6668 21.6752C27.5168 21.6002 27.3668 21.5252 27.2168 21.5252C26.3918 21.2252 25.5668 21.0752 24.6668 21.0752H24.1418C23.6168 21.0752 22.8668 21.1502 22.2668 21.4502C22.1918 21.4502 22.1168 21.5252 22.0418 21.5252C21.8168 21.6752 21.5918 21.9002 21.4418 22.1252C21.4418 22.2002 21.3668 22.2002 21.3668 22.2752C21.2918 22.4252 21.2918 22.4252 21.2168 22.5002C21.0668 22.6502 20.9168 22.7252 20.8418 22.7252C20.5418 22.8752 20.3918 23.0252 20.2418 23.2502C20.0168 23.6252 19.9418 24.0002 19.9418 24.5252V25.9502C19.9418 26.1752 20.0168 26.3252 20.0168 26.4752C20.0168 26.6252 20.0918 26.7002 20.0918 26.8502C19.5668 27.0002 19.3418 27.5252 19.3418 27.9752V28.3502C19.3418 28.5002 19.3418 28.7252 19.4168 28.8752V29.1002C19.4918 29.8502 19.8668 30.3752 20.4668 30.7502V30.8252C20.8418 32.1752 21.5168 33.1502 22.4918 33.9002C22.6418 33.9752 22.7918 34.0502 22.8668 34.1252C23.0918 34.2002 23.3168 34.3502 23.5418 34.4252C23.7668 34.5002 23.9168 34.5752 24.1418 34.5752C24.2918 34.5752 24.5168 34.6502 24.6668 34.6502C24.8168 34.6502 24.9668 34.6502 25.1918 34.5752C25.4168 34.5752 25.5668 34.5002 25.7918 34.4252C26.0168 34.3502 26.2418 34.2752 26.4668 34.1252C26.6168 34.0502 26.7668 33.9752 26.8418 33.9002C27.3668 33.5252 27.8918 33.0002 28.1918 32.4752C28.3418 32.2502 28.4918 31.9502 28.6418 31.5752C28.7168 31.4252 28.7168 31.3502 28.7168 31.2002C28.7168 31.0502 28.7918 30.9752 28.8668 30.9002C28.9418 30.8252 29.0168 30.7502 29.1668 30.6752C29.2418 30.6002 29.3168 30.6002 29.3168 30.5252C29.7668 30.1502 29.8418 29.6252 29.9168 29.2502V29.0252C29.9168 28.8752 29.9918 28.7252 29.9918 28.5002C30.0668 28.4252 30.0668 28.2752 30.0668 28.1252ZM29.0918 28.5002C29.0918 28.6502 29.0918 28.8002 29.0168 28.9502C29.0168 29.0252 29.0168 29.1002 28.9418 29.2502C28.8668 29.6252 28.7918 29.7752 28.6418 29.9252L28.5668 30.0002L28.4918 30.0752C28.3418 30.1502 28.1918 30.3002 28.1168 30.4502C27.9668 30.6752 27.8918 30.9002 27.8168 31.1252C27.8168 31.2002 27.7418 31.2752 27.7418 31.3502C27.5918 31.6502 27.5168 31.8752 27.3668 32.1002C27.0668 32.5502 26.6918 32.9252 26.2418 33.2252C26.1668 33.3002 26.0168 33.3752 25.9418 33.4502C25.7918 33.5252 25.5668 33.6002 25.4168 33.6752H25.3418C25.1918 33.7502 25.1168 33.7502 24.9668 33.8252H24.2168C24.0668 33.8252 23.9168 33.7502 23.8418 33.6752H23.7668C23.5418 33.6002 23.3918 33.5252 23.1668 33.4502C23.0168 33.3752 22.9418 33.3002 22.8668 33.2252C22.0418 32.6252 21.5168 31.8002 21.2168 30.6752C21.1418 30.3752 20.9918 30.2252 20.8418 30.0752H20.6918C20.2418 29.8502 20.1668 29.4002 20.0918 29.1752C20.0918 29.1002 20.0918 29.0252 20.0168 28.8752C20.0168 28.7252 19.9418 28.5752 19.9418 28.4252V28.0502C19.9418 27.9752 19.9418 27.9002 20.0168 27.8252H20.4668C20.6168 27.7502 20.7668 27.5252 20.7668 27.3002C20.7668 26.7002 20.7668 26.4002 21.1418 25.9502C21.4418 25.5752 21.9668 25.2752 22.4168 25.1252C22.8668 24.9752 23.3168 25.0502 23.6168 25.3502C23.7668 25.5002 23.9168 25.5752 24.1418 25.6502C24.6668 25.9502 25.1918 25.9502 25.6418 25.7252C26.1668 25.5002 26.7668 25.4252 27.3668 25.5002C27.8168 25.5752 28.1168 25.8002 28.1918 26.1752V26.3252C28.1918 26.4002 28.1918 26.4752 28.2668 26.5502V27.0002C28.2668 27.1502 28.1918 27.3752 28.2668 27.6002C28.3418 27.7502 28.4168 27.8252 28.4918 27.8252C28.5668 27.8252 28.5668 27.9002 28.6418 27.9002C28.7918 27.9752 28.8668 27.9752 28.9418 27.9752C28.9418 27.9752 29.0168 28.1252 29.0168 28.2002V28.2752C29.1668 28.2752 29.0918 28.3502 29.0918 28.5002Z" fill="currentColor"/>
<path d="M13.4168 27.7498C13.2668 26.3998 12.5168 25.4248 11.2418 24.9748C10.7168 24.7498 10.1168 24.6748 9.44176 24.6748C8.84176 24.6748 8.24176 24.7498 7.64176 24.9748C6.36676 25.4248 5.54176 26.3998 5.46676 27.7498V28.2748C5.46676 29.3998 5.76676 30.5998 6.29176 31.7248C6.51676 32.2498 6.96676 32.7748 7.49176 33.2248C8.01676 33.6748 8.69176 33.9748 9.44176 33.9748H9.51676C10.1918 33.9748 10.8668 33.6748 11.3918 33.2248C11.9168 32.7748 12.2918 32.2498 12.5918 31.7248C13.1168 30.5998 13.4168 29.4748 13.4168 28.2748V28.1248V27.7498ZM15.8168 36.2248C15.6668 36.2998 15.4418 36.3748 15.2168 36.4498C12.6668 37.2748 12.1418 39.0748 12.1418 40.0498V42.4498H2.91676C2.39176 42.4498 1.64176 42.1498 1.34176 41.3248C1.26676 41.0998 1.19176 40.8748 1.19176 40.6498V38.4748C1.19176 38.3998 1.11676 37.4998 2.09176 36.8248C2.39176 36.5998 2.69176 36.4498 3.14176 36.2998L5.91676 35.2498L6.66676 35.0248L6.89176 35.0998C7.11676 35.1748 7.34176 35.3248 7.56676 35.5498L7.71676 35.6998L9.29176 37.9498L9.51676 38.2498L11.0168 36.0748C11.0168 35.9998 11.0918 35.9998 11.0918 35.9248C11.1668 35.7748 11.2418 35.6248 11.4668 35.4748L11.5418 35.3998C12.0668 35.0248 12.6668 35.0998 13.1918 35.3248C13.1918 35.2498 15.5168 36.0748 15.8168 36.2248Z" fill="currentColor"/>
<path d="M35.9166 28.1248V28.2748C35.9166 29.3998 36.2166 30.5998 36.7416 31.7248C36.9666 32.2498 37.4166 32.7748 37.9416 33.2248C38.4666 33.6748 39.1416 33.9748 39.8166 33.9748H39.8916C40.6416 33.9748 41.3166 33.6748 41.8416 33.2248C42.3666 32.7748 42.7416 32.2498 43.0416 31.7248C43.5666 30.5998 43.8666 29.4748 43.8666 28.2748V28.1248V27.7498C43.7166 26.3998 42.9666 25.4248 41.6916 24.9748C41.1666 24.7498 40.5666 24.6748 39.8916 24.6748C39.2166 24.6748 38.6166 24.7498 38.0916 24.9748C36.8166 25.4248 35.9916 26.3998 35.9166 27.7498V28.1248ZM33.5166 36.2248C33.6666 36.2998 33.8916 36.3748 34.1166 36.4498C36.6666 37.2748 37.1916 39.0748 37.1916 40.0498V42.4498H46.4166C46.9416 42.4498 47.6916 42.1498 47.9916 41.3248C48.0666 41.0998 48.1416 40.8748 48.1416 40.6498V38.4748C48.1416 38.3998 48.2166 37.4998 47.2416 36.8248C46.9416 36.5998 46.6416 36.4498 46.1916 36.2998L43.4166 35.2498L42.6666 35.0248L42.4416 35.0998C42.2166 35.1748 41.9916 35.3248 41.7666 35.5498L41.6166 35.6998L40.0416 37.9498L39.8166 38.2498L38.3166 36.0748C38.3166 35.9998 38.2416 35.9998 38.2416 35.9248C38.1666 35.7748 38.0916 35.6248 37.8666 35.4748L37.7916 35.3998C37.2666 35.0248 36.6666 35.0998 36.1416 35.3248C36.1416 35.2498 33.8166 36.0748 33.5166 36.2248Z" fill="currentColor"/>
</g>
</g>
<defs>
<clipPath id="clip0_3794_19600">
<rect width="48" height="48" fill="currentColor" transform="translate(0.666992)"/>
</clipPath>
<clipPath id="clip1_3794_19600">
<rect width="48" height="48" fill="currentColor" transform="translate(0.666992)"/>
</clipPath>
</defs>
</svg>
