<svg viewBox="0 0 18 18" fill="none" xmlns="http://www.w3.org/2000/svg">
  <path d="M18 4.41093C17.3794 4.68161 16.7128 4.86449 16.0119 4.94715C16.7269 4.52578 17.2754 3.85715 17.534 3.06123C16.8651 3.45187 16.1242 3.73572 15.3357 3.88788C14.704 3.22656 13.8047 2.8125 12.8088 2.8125C10.8973 2.8125 9.34697 4.33851 9.34697 6.22152C9.34697 6.4878 9.37819 6.74677 9.43615 6.99696C6.55776 6.85431 4.00786 5.49728 2.3 3.43578C2.00271 3.94055 1.83178 4.52579 1.83178 5.14907C1.83178 6.33125 2.44343 7.37517 3.37168 7.98601C2.80388 7.96772 2.27026 7.81484 1.80353 7.55952V7.60341C1.80353 9.25452 2.99637 10.632 4.58086 10.9451C4.28952 11.0227 3.98408 11.0636 3.66896 11.0636C3.446 11.0636 3.22824 11.0432 3.01717 11.0036C3.45789 12.357 4.73618 13.3432 6.25157 13.3695C5.06617 14.2839 3.57309 14.829 1.95144 14.829C1.672 14.829 1.39627 14.8129 1.125 14.7814C2.65747 15.7492 4.47681 16.3125 6.43141 16.3125C12.8006 16.3125 16.2825 11.12 16.2825 6.61655C16.2825 6.47025 16.2787 6.32247 16.2721 6.17616C16.9483 5.69481 17.5355 5.09566 17.9985 4.41313L18 4.41093Z" fill="currentColor"/>
</svg>