<svg viewBox="0 0 24 24" fill="none" xmlns="http://www.w3.org/2000/svg">
<g id="Frame">
<path id="Vector" d="M11.999 16.4994V9.74943M11.999 9.74943L14.999 12.7494M11.999 9.74943L8.99903 12.7494M6.74903 19.4994C5.67847 19.5006 4.64255 19.12 3.82733 18.4261C3.01211 17.7322 2.47099 16.7704 2.30114 15.7134C2.1313 14.6563 2.34386 13.5734 2.90065 12.659C3.45745 11.7446 4.32199 11.0587 5.33903 10.7244C5.07773 9.3856 5.34779 7.99764 6.09202 6.85445C6.83624 5.71127 7.9962 4.90263 9.32625 4.59979C10.6563 4.29694 12.052 4.52367 13.2178 5.23195C14.3836 5.94023 15.2279 7.07446 15.572 8.39443C16.104 8.22141 16.6738 8.20059 17.2171 8.33433C17.7603 8.46807 18.2553 8.75104 18.6461 9.15127C19.037 9.55151 19.3082 10.0531 19.429 10.5993C19.5499 11.1455 19.5156 11.7147 19.33 12.2424C20.1487 12.5551 20.8321 13.1445 21.2616 13.9084C21.6911 14.6722 21.8398 15.5623 21.6817 16.4243C21.5236 17.2863 21.0687 18.0657 20.3961 18.6274C19.7234 19.1891 18.8754 19.4976 17.999 19.4994H6.74903Z" stroke="white" stroke-width="1.5" stroke-linecap="round" stroke-linejoin="round"/>
</g>
</svg>
